<?xml version="1.0" encoding="UTF-8" standalone="no"?>
<!DOCTYPE svg PUBLIC "-//W3C//DTD SVG 1.1//EN" "http://www.w3.org/Graphics/SVG/1.1/DTD/svg11.dtd">
<svg version="1.1" xmlns="http://www.w3.org/2000/svg" xmlns:xlink="http://www.w3.org/1999/xlink" preserveAspectRatio="xMidYMid meet" viewBox="101.93081589106382 79.91914893617022 429.62525375999996 464.80000000000007" width="425.63" height="460.8"><defs><path d="M313.71 80.99L314.77 81.07L315.82 81.18L316.86 81.33L317.9 81.51L318.92 81.72L319.93 81.96L320.93 82.23L321.91 82.53L322.88 82.86L323.84 83.22L324.78 83.6L325.71 84.02L326.62 84.46L327.51 84.92L328.38 85.42L329.24 85.94L330.08 86.48L330.89 87.05L331.69 87.64L332.47 88.26L333.22 88.9L333.95 89.56L334.66 90.25L335.34 90.95L336 91.68L336.64 92.43L337.25 93.2L337.83 93.99L338.38 94.8L338.91 95.63L339.41 96.47L339.88 97.34L340.32 98.22L340.73 99.12L341.11 100.03L341.46 100.96L341.77 101.91L342.05 102.87L342.26 103.68L342.45 104.49L342.62 105.3L342.77 106.11L342.9 106.93L343.01 107.74L343.11 108.56L343.18 109.37L343.24 110.19L343.28 111.02L343.31 111.84L343.32 112.67L343.31 113.5L343.29 114.34L343.26 115.18L343.21 116.02L343.15 116.87L343.07 117.72L342.98 118.58L342.88 119.44L342.77 120.31L342.65 121.18L342.51 122.06L342.37 122.95L342.22 123.84L342.05 124.74L341.88 125.65L341.7 126.56L341.51 127.48L341.31 128.41L341.1 129.35L340.89 130.3L340.67 131.25L340.45 132.21L340.22 133.19L339.99 134.17L339.75 135.16L339.51 136.16L339.26 137.17L339.01 138.2L338.89 138.68L338.77 139.17L338.65 139.66L338.53 140.15L338.42 140.64L338.3 141.14L338.18 141.64L338.05 142.14L337.93 142.64L337.81 143.15L337.69 143.65L337.57 144.16L337.45 144.68L337.33 145.19L337.21 145.71L337.09 146.23L336.97 146.75L336.85 147.27L336.73 147.8L336.61 148.33L336.49 148.87L336.38 149.4L336.26 149.94L336.14 150.48L336.02 151.03L335.91 151.57L335.79 152.12L335.68 152.68L335.56 153.23L335.45 153.79L335.34 154.35L335.23 154.92L335.12 155.49L335.01 156.06L334.9 156.64L334.79 157.21L334.69 157.8L334.58 158.38L334.48 158.97L334.38 159.56L336.13 159.18L337.91 158.81L339.7 158.44L341.5 158.08L343.32 157.73L345.15 157.39L346.99 157.05L348.84 156.72L350.69 156.4L352.55 156.09L354.41 155.78L356.27 155.48L358.13 155.19L359.99 154.91L361.85 154.63L363.69 154.36L365.53 154.09L367.36 153.84L369.18 153.59L370.99 153.34L372.78 153.11L374.55 152.88L376.31 152.65L378.05 152.44L379.76 152.22L381.45 152.02L383.11 151.82L384.75 151.63L386.36 151.44L387.94 151.26L389.48 151.09L390.99 150.92L392.47 150.76L393.91 150.6L395.3 150.45L396.66 150.3L397.97 150.16L399.24 150.03L400.46 149.9L401.64 149.78L401.87 149.75L402.11 149.73L402.34 149.71L402.57 149.68L402.79 149.66L403.01 149.63L403.23 149.61L403.45 149.59L403.67 149.57L403.88 149.54L404.09 149.52L404.29 149.5L404.5 149.48L404.7 149.46L404.9 149.44L405.09 149.41L405.29 149.39L405.48 149.37L405.66 149.35L405.85 149.33L406.03 149.31L406.21 149.29L406.38 149.28L406.56 149.26L406.73 149.24L406.89 149.22L407.06 149.2L407.22 149.18L407.37 149.17L407.53 149.15L407.68 149.13L407.83 149.11L407.97 149.1L408.12 149.08L408.26 149.07L408.39 149.05L408.52 149.03L408.65 149.02L408.78 149L408.9 148.99L409.19 148.96L409.47 148.92L409.76 148.89L410.04 148.86L410.33 148.83L410.62 148.8L410.91 148.77L411.2 148.74L411.49 148.71L411.78 148.68L412.08 148.66L412.37 148.63L412.67 148.61L412.96 148.58L413.26 148.56L413.55 148.54L413.85 148.52L414.15 148.5L414.44 148.48L414.74 148.46L415.04 148.44L415.34 148.43L415.64 148.41L415.94 148.4L416.24 148.38L416.53 148.37L416.83 148.36L417.13 148.35L417.43 148.34L417.73 148.33L418.03 148.32L418.33 148.31L418.63 148.31L418.93 148.3L419.23 148.29L419.53 148.29L419.82 148.29L420.12 148.28L420.42 148.28L420.71 148.28L421.84 148.29L422.95 148.31L424.04 148.34L425.11 148.38L426.15 148.44L427.17 148.51L428.18 148.59L429.16 148.68L430.12 148.79L431.06 148.9L431.98 149.03L432.88 149.18L433.75 149.33L434.61 149.5L435.45 149.68L436.26 149.88L437.06 150.08L437.83 150.3L438.59 150.53L439.32 150.78L440.03 151.03L440.73 151.3L441.4 151.58L442.05 151.88L442.69 152.19L443.3 152.51L443.89 152.84L444.46 153.19L445.02 153.55L445.55 153.92L446.06 154.3L446.56 154.7L447.03 155.11L447.49 155.54L447.92 155.97L448.34 156.42L448.73 156.88L449.11 157.36L449.46 157.85L449.8 158.35L450.3 159.12L450.52 159.45L450.75 159.8L450.98 160.16L451.21 160.52L451.45 160.9L451.69 161.29L451.94 161.69L452.18 162.09L452.43 162.51L452.68 162.94L452.92 163.37L453.16 163.81L453.4 164.26L453.64 164.72L453.87 165.19L454.09 165.67L454.31 166.15L454.52 166.64L454.73 167.13L454.92 167.64L455.11 168.14L455.28 168.66L455.44 169.18L455.59 169.71L455.73 170.24L455.85 170.78L455.96 171.32L456.05 171.87L456.13 172.42L456.19 172.98L456.23 173.54L456.25 174.11L456.25 174.68L456.23 175.25L456.19 175.82L456.12 176.4L456.04 176.98L455.92 177.57L455.79 178.15L455.62 178.74L455.41 179.42L455.2 180.1L454.98 180.76L454.76 181.41L454.53 182.05L454.3 182.68L454.06 183.31L453.81 183.92L453.56 184.53L453.29 185.12L453.02 185.71L452.74 186.29L452.45 186.87L452.16 187.43L451.85 187.99L451.52 188.54L451.19 189.09L450.85 189.63L450.49 190.16L450.12 190.69L449.74 191.21L449.34 191.73L448.93 192.24L448.5 192.75L448.06 193.25L447.6 193.75L447.12 194.24L446.63 194.73L446.12 195.22L445.59 195.7L445.04 196.19L444.47 196.66L443.88 197.14L443.27 197.61L442.64 198.09L441.99 198.56L441.32 199.03L440.63 199.5L439.91 199.96L439.17 200.43L440.08 200.53L440.99 200.63L441.92 200.74L442.85 200.85L443.79 200.97L444.73 201.1L445.68 201.23L446.64 201.37L447.6 201.52L448.56 201.68L449.53 201.84L450.51 202.01L451.48 202.19L452.46 202.37L453.44 202.57L454.43 202.77L455.41 202.98L456.39 203.2L457.38 203.42L458.36 203.66L459.35 203.9L460.33 204.16L461.31 204.42L462.29 204.7L463.27 204.98L464.24 205.27L465.21 205.57L466.17 205.89L467.13 206.21L468.09 206.55L469.04 206.89L469.98 207.25L470.92 207.61L471.85 207.99L472.77 208.38L473.69 208.78L474.6 209.19L475.49 209.62L476.38 210.05L477.26 210.5L478.59 211.21L479.88 211.92L481.14 212.64L482.37 213.37L483.57 214.11L484.74 214.85L485.88 215.6L486.99 216.35L488.07 217.11L489.12 217.87L490.15 218.63L491.14 219.39L492.1 220.16L493.04 220.92L493.95 221.68L494.83 222.45L495.68 223.21L496.51 223.96L497.31 224.71L498.08 225.46L498.83 226.2L499.55 226.94L500.25 227.67L500.92 228.39L501.57 229.1L502.19 229.8L502.79 230.49L503.36 231.17L503.91 231.84L504.43 232.5L504.94 233.14L505.42 233.77L505.88 234.38L506.31 234.98L506.73 235.56L507.12 236.12L507.49 236.67L507.84 237.19L508.17 237.7L508.48 238.19L509.92 240.59L511.31 243.11L512.63 245.73L513.9 248.44L515.11 251.23L516.26 254.12L517.35 257.08L518.39 260.11L519.37 263.22L520.3 266.38L521.18 269.6L522 272.87L522.77 276.18L523.49 279.54L524.15 282.93L524.77 286.35L525.34 289.79L525.85 293.24L526.33 296.72L526.75 300.19L527.13 303.67L527.46 307.15L527.74 310.61L527.99 314.06L528.18 317.49L528.34 320.89L528.45 324.26L528.52 327.59L528.56 330.88L528.55 334.12L528.5 337.31L528.41 340.44L528.29 343.5L528.13 346.49L527.93 349.41L527.7 352.25L527.43 354.99L527.13 357.65L526.8 360.21L526.43 362.66L524.98 370.87L523.3 378.91L521.39 386.8L519.25 394.51L516.88 402.07L514.29 409.45L511.48 416.66L508.45 423.69L505.2 430.55L501.75 437.23L498.08 443.73L494.21 450.04L490.14 456.17L485.87 462.11L481.4 467.85L476.73 473.4L471.88 478.76L466.84 483.91L461.61 488.86L456.2 493.61L450.62 498.15L444.85 502.48L438.92 506.6L432.81 510.5L426.53 514.19L420.1 517.65L413.5 520.9L406.74 523.92L399.83 526.71L392.77 529.27L385.55 531.6L378.19 533.7L370.69 535.56L363.05 537.18L355.27 538.56L347.35 539.69L339.31 540.57L331.13 541.21L322.83 541.59L314.41 541.72L305.78 541.59L297.29 541.21L288.94 540.57L280.74 539.68L272.67 538.55L264.76 537.17L257 535.55L249.39 533.68L241.94 531.58L234.64 529.25L227.52 526.68L220.55 523.88L213.76 520.85L207.14 517.6L200.69 514.13L194.42 510.43L188.33 506.52L182.42 502.39L176.7 498.05L171.17 493.5L165.83 488.74L160.69 483.78L155.75 478.62L151 473.25L146.46 467.69L142.13 461.93L138.01 455.98L134.1 449.84L130.4 443.52L126.93 437L123.67 430.31L120.64 423.44L117.84 416.38L115.27 409.16L112.93 401.76L110.83 394.19L108.97 386.45L107.35 378.55L105.97 370.49L104.85 362.27L104.38 358.12L103.98 353.98L103.64 349.86L103.37 345.76L103.16 341.68L103.02 337.63L102.94 333.6L102.93 329.59L102.98 325.62L103.09 321.68L103.26 317.77L103.5 313.91L103.8 310.08L104.15 306.29L104.57 302.54L105.05 298.84L105.58 295.19L106.18 291.59L106.83 288.04L107.54 284.54L108.31 281.1L109.13 277.72L110.01 274.4L110.95 271.15L111.94 267.96L112.99 264.83L114.09 261.78L115.25 258.8L116.46 255.89L117.72 253.06L119.04 250.31L120.41 247.64L121.83 245.05L123.3 242.55L124.82 240.14L126.39 237.81L128.01 235.58L129.68 233.44L131.4 231.4L133.17 229.46L134.27 228.32L135.37 227.2L136.5 226.1L137.64 225.03L138.79 223.97L139.95 222.94L141.14 221.93L142.33 220.94L143.54 219.97L144.77 219.02L146.01 218.09L147.26 217.18L148.53 216.3L149.81 215.43L151.11 214.59L152.42 213.76L153.75 212.96L155.09 212.18L156.45 211.42L157.82 210.68L159.21 209.96L160.61 209.26L162.03 208.58L163.46 207.92L164.91 207.29L166.37 206.67L167.85 206.08L169.34 205.5L170.85 204.95L172.38 204.42L173.92 203.9L175.47 203.41L177.04 202.94L178.63 202.49L180.23 202.06L181.85 201.65L183.48 201.26L185.13 200.89L186.79 200.54L188.47 200.21L187.18 199.53L185.92 198.86L184.7 198.21L183.51 197.56L182.36 196.92L181.23 196.29L180.14 195.67L179.09 195.06L178.06 194.45L177.07 193.85L176.1 193.25L175.17 192.66L174.27 192.07L173.4 191.49L172.55 190.91L171.74 190.33L170.95 189.75L170.19 189.17L169.46 188.6L168.76 188.02L168.08 187.44L167.43 186.86L166.81 186.27L166.21 185.69L165.63 185.09L165.08 184.5L164.56 183.9L164.05 183.29L163.58 182.67L163.12 182.05L162.69 181.42L162.28 180.78L161.89 180.14L161.52 179.48L161.17 178.81L160.84 178.13L160.54 177.44L160.25 176.73L159.98 176.01L159.73 175.28L159.58 174.81L159.44 174.34L159.31 173.86L159.19 173.39L159.08 172.92L158.98 172.44L158.89 171.97L158.81 171.5L158.73 171.03L158.67 170.56L158.62 170.09L158.58 169.62L158.55 169.15L158.53 168.68L158.51 168.21L158.51 167.75L158.52 167.28L158.53 166.82L158.56 166.36L158.6 165.9L158.64 165.44L158.7 164.98L158.76 164.53L158.84 164.07L158.92 163.62L159.02 163.18L159.12 162.73L159.23 162.29L159.36 161.85L159.49 161.41L159.63 160.98L159.78 160.55L159.94 160.12L160.12 159.69L160.3 159.27L160.49 158.85L160.69 158.44L160.89 158.03L161.11 157.62L161.34 157.22L161.57 156.83L161.8 156.46L162.04 156.09L162.28 155.74L162.53 155.39L162.78 155.05L163.03 154.73L163.28 154.41L163.54 154.1L163.8 153.79L164.05 153.5L164.31 153.22L164.57 152.94L164.83 152.68L165.09 152.42L165.34 152.17L165.59 151.93L165.84 151.7L166.09 151.48L166.34 151.27L166.58 151.06L166.81 150.87L167.04 150.68L167.27 150.5L167.49 150.33L167.7 150.17L167.9 150.02L168.1 149.88L168.29 149.74L168.47 149.61L168.65 149.5L168.81 149.39L168.97 149.29L169.11 149.2L169.24 149.11L169.37 149.04L169.48 148.97L169.57 148.91L169.66 148.86L169.73 148.82L169.85 148.76L169.98 148.69L170.11 148.62L170.26 148.55L170.42 148.47L170.59 148.39L170.77 148.3L170.97 148.22L171.18 148.13L171.4 148.04L171.64 147.95L171.89 147.85L172.17 147.76L172.45 147.66L172.76 147.57L173.08 147.47L173.43 147.38L173.79 147.28L174.17 147.19L174.58 147.1L175 147.01L175.45 146.92L175.92 146.83L176.41 146.75L176.93 146.67L177.47 146.59L178.03 146.51L178.63 146.44L179.25 146.37L179.89 146.31L180.57 146.25L181.27 146.2L182 146.15L182.76 146.11L183.55 146.07L184.37 146.04L185.23 146.01L186.11 145.99L187.03 145.98L187.99 145.98L188.53 145.98L189.09 145.98L189.65 145.99L190.21 146L190.78 146.01L191.36 146.02L191.94 146.04L192.53 146.06L193.12 146.08L193.71 146.1L194.31 146.13L194.92 146.16L195.53 146.19L196.15 146.22L196.77 146.26L197.39 146.3L198.02 146.34L198.66 146.38L199.3 146.42L199.94 146.47L200.59 146.52L201.25 146.58L201.91 146.63L202.57 146.69L203.24 146.75L203.92 146.81L204.59 146.88L205.28 146.94L205.97 147.01L206.66 147.09L207.35 147.16L208.06 147.24L208.76 147.32L209.47 147.4L210.19 147.49L210.91 147.57L211.63 147.66L212.36 147.75L213.09 147.85L213.83 147.95L214.6 148.05L215.37 148.16L216.15 148.27L216.93 148.39L217.71 148.51L218.5 148.63L219.29 148.76L220.09 148.9L220.88 149.04L221.68 149.18L222.49 149.33L223.3 149.48L224.11 149.64L224.92 149.8L225.74 149.96L226.56 150.13L227.39 150.3L228.21 150.48L229.05 150.66L229.88 150.85L230.72 151.04L231.56 151.24L232.4 151.43L233.25 151.64L234.1 151.84L234.95 152.06L235.81 152.27L236.66 152.49L237.53 152.72L238.39 152.94L239.26 153.18L240.13 153.41L241 153.65L241.88 153.9L242.75 154.15L243.64 154.4L244.52 154.66L245.41 154.92L246.3 155.19L247.19 155.46L247.84 155.65L248.49 155.85L249.15 156.05L249.81 156.25L250.48 156.46L251.15 156.66L251.82 156.86L252.49 157.06L253.17 157.27L253.84 157.47L254.52 157.68L255.21 157.88L255.89 158.09L256.57 158.29L257.25 158.5L257.94 158.7L258.62 158.9L259.3 159.11L259.99 159.31L260.67 159.52L261.35 159.72L262.03 159.92L262.71 160.12L263.38 160.33L264.05 160.53L264.72 160.73L265.39 160.92L266.06 161.12L266.72 161.32L267.37 161.51L268.03 161.71L268.68 161.9L269.32 162.09L269.96 162.28L270.59 162.47L271.22 162.65L271.84 162.84L272.46 163.02L273.07 163.2L273.67 163.38L273.86 163.44L274.04 163.49L274.13 163.52L274.22 163.55L274.32 163.57L274.5 163.63L274.67 163.68L274.85 163.73L275.03 163.78L275.29 163.86L275.88 164.04L276.13 164.11L276.3 164.16L276.46 164.21L276.63 164.26L276.79 164.31L276.95 164.35L277.1 164.4L277.12 164.2L277.14 164L277.16 163.8L277.18 163.6L277.2 163.41L277.21 163.21L277.23 163.01L277.25 162.81L277.27 162.61L277.29 162.41L277.31 162.21L277.32 162.01L277.34 161.82L277.36 161.62L277.38 161.42L277.4 161.22L277.41 161.02L277.43 160.83L277.45 160.63L277.47 160.43L277.49 160.23L277.5 160.03L277.52 159.84L277.54 159.64L277.56 159.44L277.58 159.25L277.59 159.05L277.61 158.85L277.63 158.66L277.65 158.46L277.67 158.26L277.68 158.07L277.7 157.87L277.72 157.67L277.74 157.48L277.76 157.28L277.77 157.09L277.79 156.89L277.81 156.7L277.83 156.5L278.08 153.74L278.32 151.04L278.57 148.41L278.81 145.83L279.05 143.33L279.29 140.88L279.52 138.49L279.76 136.17L280 133.9L280.23 131.7L280.47 129.55L280.71 127.46L280.96 125.43L281.21 123.46L281.46 121.54L281.71 119.68L281.98 117.87L282.25 116.11L282.52 114.41L282.8 112.76L283.09 111.17L283.39 109.62L283.7 108.13L284.02 106.69L284.35 105.29L284.69 103.95L285.04 102.65L285.4 101.4L285.78 100.2L286.17 99.04L286.58 97.93L287 96.87L287.43 95.85L287.89 94.87L288.36 93.94L288.84 93.04L289.35 92.2L289.87 91.39L290.42 90.62L290.98 89.89L291.33 89.47L291.69 89.05L292.07 88.65L292.45 88.25L292.84 87.87L293.25 87.49L293.66 87.12L294.08 86.77L294.52 86.42L294.96 86.08L295.41 85.75L295.87 85.44L296.33 85.13L296.81 84.83L297.29 84.54L297.79 84.27L298.29 84L298.79 83.75L299.31 83.5L299.83 83.27L300.36 83.04L300.9 82.83L301.44 82.63L301.99 82.43L302.55 82.25L303.11 82.08L303.68 81.93L304.26 81.78L304.84 81.64L305.43 81.52L306.02 81.41L306.61 81.3L307.22 81.21L307.82 81.14L308.44 81.07L309.05 81.02L309.67 80.97L310.3 80.94L310.92 80.93L311.56 80.92L312.63 80.94L313.71 80.99ZM207.67 219.13L205.68 219.27L203.71 219.43L201.77 219.62L199.85 219.84L197.95 220.09L196.08 220.36L194.23 220.67L192.41 221L190.61 221.35L188.83 221.74L187.08 222.15L185.35 222.59L183.64 223.06L181.96 223.55L180.3 224.08L178.67 224.63L177.05 225.21L175.47 225.82L173.9 226.45L172.36 227.11L170.84 227.81L169.34 228.53L167.87 229.27L166.41 230.05L164.99 230.86L163.58 231.69L162.2 232.55L160.84 233.44L159.5 234.36L158.18 235.31L156.89 236.28L155.62 237.28L154.37 238.32L153.14 239.38L151.94 240.47L150.75 241.59L149.59 242.74L148.45 243.91L147.01 245.51L145.61 247.19L144.25 248.97L142.93 250.84L141.65 252.8L140.41 254.84L139.21 256.97L138.05 259.18L136.94 261.47L135.87 263.84L134.84 266.28L133.85 268.8L132.91 271.38L132.02 274.04L131.16 276.76L130.36 279.54L129.6 282.39L128.88 285.29L128.21 288.26L127.59 291.27L127.02 294.34L126.49 297.47L126.02 300.64L125.59 303.85L125.21 307.11L124.88 310.41L124.6 313.75L124.37 317.13L124.2 320.54L124.07 323.99L124 327.46L123.97 330.97L124 334.5L124.09 338.05L124.23 341.63L124.42 345.22L124.67 348.83L124.97 352.46L125.32 356.1L125.74 359.75L126.75 367.12L127.98 374.35L129.44 381.44L131.11 388.38L133 395.17L135.1 401.8L137.41 408.28L139.93 414.61L142.66 420.77L145.59 426.78L148.71 432.62L152.04 438.29L155.56 443.8L159.27 449.13L163.17 454.3L167.25 459.29L171.53 464.1L175.98 468.73L180.61 473.18L185.41 477.45L190.39 481.53L195.54 485.42L200.86 489.12L206.34 492.63L211.99 495.94L217.8 499.06L223.76 501.98L229.88 504.69L236.15 507.2L242.57 509.5L249.14 511.6L255.85 513.48L262.7 515.15L269.69 516.61L276.82 517.85L284.08 518.87L291.48 519.66L299 520.23L306.64 520.58L314.41 520.69L322.12 520.58L329.71 520.24L337.17 519.68L344.5 518.9L351.71 517.9L358.78 516.69L365.72 515.26L372.53 513.61L379.19 511.75L385.72 509.69L392.11 507.42L398.35 504.94L404.44 502.25L410.39 499.37L416.18 496.28L421.82 492.99L427.31 489.51L432.64 485.84L437.81 481.97L442.82 477.91L447.66 473.65L452.34 469.22L456.85 464.59L461.19 459.78L465.36 454.8L469.35 449.62L473.16 444.28L476.8 438.75L480.25 433.05L483.52 427.18L486.61 421.13L489.51 414.92L492.21 408.54L494.73 401.99L497.05 395.29L499.17 388.41L501.1 381.38L502.82 374.19L504.34 366.85L505.66 359.34L505.99 357.15L506.29 354.85L506.55 352.47L506.79 350L506.99 347.45L507.16 344.83L507.3 342.13L507.4 339.38L507.47 336.56L507.51 333.69L507.51 330.77L507.48 327.81L507.41 324.82L507.31 321.79L507.17 318.73L506.99 315.65L506.78 312.56L506.53 309.46L506.24 306.35L505.91 303.24L505.54 300.14L505.14 297.05L504.69 293.97L504.21 290.92L503.68 287.89L503.12 284.9L502.51 281.94L501.86 279.03L501.17 276.16L500.43 273.35L499.66 270.6L498.84 267.91L497.97 265.3L497.06 262.75L496.11 260.29L495.11 257.92L494.07 255.63L492.98 253.44L491.84 251.36L490.66 249.38L490.48 249.09L490.28 248.79L490.07 248.47L489.83 248.12L489.58 247.76L489.31 247.38L489.02 246.99L488.72 246.57L488.39 246.15L488.05 245.71L487.68 245.25L487.3 244.78L486.89 244.3L486.47 243.81L486.03 243.3L485.56 242.79L485.07 242.26L484.57 241.73L484.04 241.19L483.49 240.64L482.91 240.08L482.32 239.52L481.7 238.95L481.06 238.38L480.4 237.8L479.71 237.22L479 236.64L478.27 236.05L477.51 235.47L476.73 234.88L475.93 234.3L475.1 233.71L474.24 233.13L473.36 232.55L472.46 231.97L471.53 231.4L470.57 230.83L469.59 230.27L468.58 229.71L467.54 229.16L466.76 228.76L465.96 228.38L465.15 228L464.32 227.64L463.49 227.29L462.64 226.95L461.79 226.62L460.92 226.3L460.05 226L459.17 225.7L458.28 225.42L457.38 225.15L456.48 224.88L455.58 224.63L454.66 224.39L453.75 224.15L452.83 223.93L451.91 223.71L450.98 223.51L450.06 223.31L449.13 223.12L448.21 222.94L447.28 222.77L446.35 222.6L445.43 222.45L444.51 222.3L443.59 222.16L442.68 222.03L441.77 221.9L440.87 221.78L439.97 221.67L439.07 221.57L438.19 221.47L437.31 221.37L436.44 221.29L435.58 221.21L434.73 221.13L433.89 221.06L433.06 221L432.24 220.94L432.42 221.07L432.6 221.2L432.79 221.34L432.96 221.47L433.14 221.6L433.32 221.73L433.49 221.86L433.67 221.99L433.84 222.12L434.01 222.25L434.18 222.38L434.35 222.51L434.52 222.64L434.68 222.76L434.85 222.89L435.01 223.02L435.17 223.14L435.33 223.27L435.49 223.39L435.65 223.52L435.8 223.64L435.96 223.77L436.11 223.89L436.26 224.01L436.41 224.13L436.56 224.26L436.7 224.38L436.85 224.5L436.99 224.62L437.13 224.74L437.27 224.86L437.41 224.98L437.54 225.09L437.68 225.21L437.81 225.33L437.94 225.45L438.07 225.56L438.2 225.68L438.32 225.79L438.45 225.91L438.55 226L438.65 226.1L438.77 226.2L438.9 226.31L439.03 226.42L439.17 226.54L439.31 226.66L439.46 226.79L439.62 226.92L439.79 227.05L439.96 227.19L440.14 227.33L440.32 227.48L440.51 227.63L440.71 227.78L440.91 227.94L441.11 228.1L441.32 228.26L441.53 228.43L441.75 228.6L441.97 228.77L442.2 228.94L442.42 229.12L442.66 229.29L442.89 229.47L443.13 229.65L443.37 229.84L443.61 230.02L443.86 230.21L444.11 230.4L444.36 230.58L444.61 230.77L444.86 230.96L445.11 231.15L445.37 231.35L445.62 231.54L445.88 231.73L446.13 231.92L446.39 232.12L446.64 232.31L448.11 233.41L449.58 234.52L451.06 235.64L452.53 236.76L454.01 237.89L455.47 239.02L456.93 240.16L458.38 241.31L459.81 242.46L461.22 243.62L462.61 244.78L463.98 245.95L465.32 247.12L466.62 248.29L467.9 249.47L469.13 250.65L470.33 251.84L471.48 253.02L472.59 254.22L473.64 255.41L474.64 256.6L475.59 257.8L476.48 259L477.3 260.2L478.06 261.4L478.75 262.61L479.37 263.81L479.92 265.01L480.38 266.22L480.77 267.42L481.07 268.63L481.28 269.83L481.4 271.03L481.43 272.23L481.36 273.43L481.2 274.63L480.93 275.83L480.55 277.02L480.06 278.21L479.46 279.4L479.1 280.05L478.72 280.67L478.33 281.29L477.93 281.88L477.52 282.47L477.1 283.03L476.67 283.58L476.23 284.12L475.78 284.64L475.32 285.14L474.84 285.63L474.36 286.1L473.87 286.56L473.36 287L472.85 287.42L472.33 287.83L471.79 288.22L471.25 288.6L470.69 288.96L470.13 289.3L469.56 289.63L468.98 289.94L468.39 290.23L467.78 290.51L467.17 290.77L466.55 291.02L465.93 291.24L465.29 291.46L464.64 291.65L463.98 291.83L463.32 291.99L462.65 292.14L461.96 292.26L461.27 292.37L460.57 292.47L459.87 292.55L459.15 292.61L458.43 292.65L457.69 292.67L456.95 292.68L456.5 292.68L456.05 292.67L455.59 292.66L455.12 292.63L454.66 292.61L454.19 292.57L453.71 292.53L453.24 292.49L452.75 292.43L452.27 292.37L451.77 292.31L451.28 292.24L450.78 292.16L450.27 292.08L449.76 291.98L449.24 291.89L448.72 291.78L448.2 291.67L447.66 291.55L447.12 291.43L446.58 291.3L446.03 291.16L445.47 291.01L444.9 290.86L444.33 290.7L443.75 290.54L443.17 290.37L442.58 290.19L441.98 290L441.37 289.81L440.76 289.61L440.13 289.4L439.5 289.18L438.86 288.96L438.22 288.73L437.56 288.5L436.9 288.25L436.23 288L435.55 287.74L434.86 287.48L434.26 287.25L433.56 286.98L432.76 286.67L431.86 286.33L430.86 285.96L429.76 285.56L428.58 285.13L427.32 284.67L425.97 284.19L424.55 283.69L423.06 283.18L421.49 282.65L419.87 282.1L418.18 281.54L416.43 280.97L414.63 280.4L412.79 279.83L410.89 279.25L408.96 278.67L406.99 278.09L404.98 277.52L402.95 276.96L400.89 276.41L398.81 275.87L396.71 275.34L394.6 274.83L392.48 274.34L390.35 273.88L388.22 273.43L386.09 273.01L383.97 272.62L381.86 272.27L379.76 271.94L377.68 271.65L375.62 271.4L373.58 271.19L371.58 271.02L369.61 270.9L367.67 270.83L365.78 270.8L365.46 270.8L365.12 270.8L364.77 270.81L364.39 270.82L364 270.83L363.59 270.84L363.17 270.86L362.74 270.88L362.3 270.91L361.85 270.94L361.39 270.98L360.92 271.02L360.44 271.06L359.97 271.12L359.49 271.18L359 271.24L358.52 271.31L358.03 271.39L357.55 271.48L357.07 271.57L356.6 271.68L356.13 271.79L355.67 271.91L355.22 272.04L354.77 272.18L354.34 272.32L353.92 272.48L353.51 272.65L353.12 272.83L352.74 273.02L352.38 273.22L352.04 273.43L351.72 273.66L351.41 273.9L351.14 274.15L350.88 274.41L350.65 274.69L350.45 274.98L350.27 275.28L350.12 275.6L349.95 276.1L349.78 276.62L349.62 277.17L349.46 277.73L349.31 278.32L349.16 278.94L349.01 279.57L348.87 280.22L348.73 280.89L348.6 281.57L348.47 282.28L348.35 283L348.23 283.74L348.11 284.49L347.99 285.26L347.88 286.05L347.77 286.85L347.67 287.66L347.57 288.48L347.47 289.32L347.37 290.16L347.27 291.02L347.18 291.89L347.09 292.76L347 293.65L346.92 294.54L346.83 295.44L346.75 296.35L346.67 297.26L346.59 298.18L346.51 299.1L346.44 300.03L346.36 300.96L346.29 301.9L346.21 302.84L346.14 303.77L346.07 304.71L345.99 305.65L345.92 306.59L345.85 307.53L345.57 311.13L345.4 312.95L345.2 314.69L344.95 316.37L344.67 317.99L344.35 319.55L344 321.04L343.62 322.48L343.2 323.86L342.76 325.18L342.28 326.45L341.78 327.66L341.26 328.82L340.71 329.93L340.15 330.98L339.56 331.99L338.95 332.95L338.33 333.86L337.69 334.72L337.04 335.54L336.37 336.32L335.69 337.05L335.01 337.74L334.32 338.39L333.62 339.01L332.92 339.58L332.21 340.12L331.5 340.62L330.8 341.09L330.09 341.53L329.39 341.93L328.69 342.31L328 342.65L327.32 342.97L326.65 343.26L325.98 343.52L325.33 343.76L324.7 343.98L324.08 344.17L323.48 344.34L322.9 344.5L322.75 344.53L322.61 344.57L322.47 344.6L322.33 344.63L322.18 344.66L322.04 344.69L321.9 344.72L321.75 344.75L321.61 344.78L321.47 344.81L321.32 344.83L321.18 344.86L321.04 344.88L320.89 344.91L320.75 344.93L320.6 344.95L320.46 344.97L320.32 344.99L320.17 345.01L320.03 345.03L319.88 345.05L319.74 345.07L319.6 345.08L319.45 345.1L319.31 345.11L319.16 345.12L319.02 345.14L318.87 345.15L318.73 345.16L318.59 345.17L318.44 345.18L318.3 345.18L318.15 345.19L318.01 345.2L317.87 345.2L317.72 345.21L317.58 345.21L317.43 345.21L317.29 345.21L317.15 345.21L316.11 345.19L315.08 345.12L314.07 345.01L313.07 344.86L312.09 344.66L311.12 344.42L310.17 344.15L309.23 343.83L308.3 343.48L307.39 343.1L306.5 342.68L305.62 342.22L304.76 341.73L303.92 341.22L303.09 340.67L302.28 340.09L301.49 339.49L300.71 338.86L299.95 338.2L299.21 337.52L298.49 336.82L297.79 336.09L297.11 335.35L296.44 334.58L295.8 333.8L295.17 333L294.57 332.19L293.98 331.36L293.41 330.51L292.87 329.66L292.35 328.79L291.84 327.91L291.36 327.02L290.9 326.13L290.47 325.23L290.05 324.32L289.66 323.41L289.29 322.5L288.94 321.58L288.62 320.66L288.39 319.97L288.16 319.27L287.94 318.57L287.73 317.86L287.52 317.16L287.32 316.46L287.12 315.76L286.93 315.05L286.75 314.35L286.57 313.64L286.39 312.94L286.23 312.23L286.06 311.53L285.9 310.83L285.75 310.12L285.6 309.42L285.46 308.72L285.31 308.02L285.18 307.32L285.04 306.62L284.92 305.92L284.79 305.22L284.67 304.53L284.55 303.84L284.43 303.15L284.32 302.46L284.21 301.77L284.1 301.09L284 300.41L283.89 299.73L283.79 299.06L283.69 298.39L283.6 297.72L283.5 297.05L283.41 296.39L283.31 295.73L283.22 295.07L283.13 294.42L283.04 293.78L282.96 293.13L282.75 291.65L282.55 290.22L282.34 288.86L282.15 287.56L281.95 286.32L281.75 285.14L281.56 284.01L281.37 282.95L281.17 281.93L280.98 280.97L280.79 280.06L280.59 279.2L280.4 278.39L280.2 277.62L280 276.9L279.8 276.23L279.59 275.6L279.38 275.01L279.17 274.47L278.95 273.96L278.73 273.49L278.51 273.05L278.27 272.66L278.04 272.29L277.79 271.96L277.54 271.66L277.28 271.39L277.02 271.15L276.75 270.93L276.46 270.74L276.17 270.57L275.88 270.43L275.57 270.31L275.25 270.21L274.92 270.13L274.58 270.06L274.23 270.02L273.86 269.98L273.49 269.96L273.1 269.95L272.15 269.98L271.17 270.05L270.16 270.16L269.13 270.31L268.07 270.51L266.98 270.75L265.86 271.02L264.73 271.33L263.57 271.68L262.38 272.07L261.17 272.49L259.95 272.94L258.7 273.43L257.43 273.95L256.14 274.49L254.84 275.07L253.52 275.67L252.18 276.29L250.83 276.95L249.46 277.62L248.08 278.32L246.69 279.04L245.28 279.78L243.86 280.54L242.43 281.31L240.99 282.1L239.55 282.91L238.09 283.73L236.63 284.57L235.16 285.41L233.68 286.27L232.2 287.13L230.72 288.01L229.23 288.89L227.75 289.77L226.25 290.66L224.76 291.56L223.27 292.45L221.78 293.35L220.29 294.24L220.15 294.33L220 294.42L219.86 294.51L219.71 294.6L219.56 294.69L219.42 294.78L219.27 294.87L219.12 294.96L218.97 295.06L218.82 295.15L218.67 295.24L218.53 295.34L218.38 295.43L218.23 295.52L218.08 295.62L217.93 295.72L217.77 295.81L217.62 295.91L217.47 296.01L217.32 296.1L217.17 296.2L217.02 296.3L216.86 296.4L216.71 296.5L216.56 296.6L216.4 296.7L216.25 296.8L216.09 296.9L215.94 297L215.78 297.1L215.63 297.2L215.47 297.3L215.32 297.4L215.16 297.5L215.01 297.61L214.85 297.71L214.69 297.81L214.54 297.91L214.38 298.02L214.22 298.12L213.52 298.58L212.81 299.04L212.09 299.51L211.37 299.98L210.65 300.44L209.92 300.91L209.19 301.37L208.46 301.83L207.72 302.29L206.97 302.75L206.23 303.2L205.47 303.65L204.72 304.09L203.96 304.52L203.2 304.95L202.43 305.37L201.66 305.78L200.88 306.18L200.11 306.58L199.32 306.96L198.54 307.33L197.75 307.68L196.96 308.03L196.17 308.36L195.37 308.67L194.57 308.98L193.77 309.26L192.96 309.53L192.15 309.78L191.34 310.01L190.53 310.23L189.71 310.42L188.89 310.6L188.07 310.75L187.24 310.89L186.42 311L185.59 311.08L184.75 311.15L183.92 311.18L183.09 311.2L182.73 311.19L182.39 311.19L182.04 311.18L181.7 311.16L181.36 311.14L181.02 311.11L180.68 311.09L180.34 311.05L180 311.01L179.67 310.97L179.33 310.92L179 310.87L178.67 310.81L178.34 310.75L178.02 310.69L177.69 310.62L177.37 310.54L177.04 310.47L176.72 310.38L176.4 310.29L176.08 310.2L175.77 310.11L175.45 310L175.14 309.9L174.83 309.79L174.52 309.67L174.21 309.56L173.9 309.43L173.6 309.3L173.29 309.17L172.99 309.04L172.69 308.89L172.39 308.75L172.1 308.6L171.8 308.44L171.51 308.29L171.22 308.12L170.93 307.96L170.64 307.78L170.35 307.61L170.09 307.44L169.83 307.26L169.57 307.08L169.32 306.9L169.07 306.71L168.83 306.51L168.59 306.31L168.36 306.11L168.13 305.9L167.9 305.68L167.69 305.47L167.47 305.24L167.26 305.02L167.06 304.79L166.86 304.55L166.67 304.31L166.48 304.07L166.3 303.82L166.12 303.57L165.95 303.31L165.78 303.05L165.62 302.79L165.47 302.52L165.31 302.25L165.17 301.98L165.03 301.7L164.9 301.42L164.77 301.13L164.65 300.84L164.53 300.55L164.42 300.26L164.31 299.96L164.21 299.66L164.12 299.36L164.03 299.05L163.95 298.74L163.88 298.43L163.81 298.11L163.74 297.79L163.69 297.47L163.55 296.46L163.47 295.42L163.45 294.36L163.5 293.27L163.6 292.15L163.77 291L163.99 289.81L164.28 288.6L164.62 287.35L165.03 286.07L165.49 284.76L166.02 283.4L166.61 282.01L167.25 280.59L167.96 279.12L168.73 277.62L169.56 276.07L170.45 274.48L171.4 272.85L172.41 271.18L173.48 269.46L174.61 267.69L175.8 265.88L177.05 264.02L178.36 262.12L179.73 260.16L181.16 258.15L182.65 256.09L184.21 253.98L185.82 251.81L187.49 249.59L189.23 247.32L191.02 244.99L192.88 242.6L194.79 240.15L196.77 237.64L198.8 235.08L200.9 232.45L203.05 229.76L205.27 227L205.44 226.8L205.6 226.59L205.77 226.39L205.93 226.19L206.09 225.99L206.25 225.79L206.41 225.59L206.58 225.39L206.73 225.19L206.89 224.99L207.05 224.8L207.21 224.6L207.36 224.41L207.52 224.22L207.67 224.03L207.82 223.84L207.98 223.65L208.13 223.46L208.28 223.27L208.43 223.09L208.58 222.9L208.72 222.72L208.87 222.54L209.01 222.35L209.16 222.17L209.3 222L209.44 221.82L209.58 221.64L209.72 221.47L209.86 221.29L210 221.12L210.14 220.95L210.27 220.78L210.41 220.61L210.54 220.44L210.67 220.28L210.8 220.11L210.93 219.95L211.06 219.79L211.19 219.63L211.2 219.61L211.23 219.57L211.25 219.55L211.28 219.52L211.3 219.48L211.33 219.45L211.36 219.41L211.39 219.38L211.4 219.36L211.41 219.34L211.44 219.31L211.48 219.26L211.56 219.16L211.62 219.07L211.66 219.02L211.69 218.99L211.72 218.95L211.73 218.93L209.69 219.02L207.67 219.13ZM311.21 101.96L311.04 101.96L310.87 101.97L310.71 101.98L310.55 102L310.39 102.01L310.24 102.03L310.09 102.05L309.95 102.07L309.8 102.09L309.67 102.12L309.53 102.15L309.4 102.17L309.27 102.2L309.15 102.23L309.03 102.27L308.91 102.3L308.8 102.33L308.69 102.37L308.59 102.4L308.48 102.44L308.39 102.48L308.29 102.52L308.2 102.55L308.12 102.59L308.04 102.63L307.96 102.67L307.88 102.71L307.81 102.75L307.75 102.79L307.68 102.83L307.63 102.87L307.57 102.91L307.52 102.94L307.48 102.98L307.43 103.02L307.4 103.05L307.36 103.09L307.33 103.12L307.03 103.56L306.74 104.08L306.45 104.68L306.17 105.36L305.89 106.12L305.62 106.95L305.35 107.86L305.09 108.83L304.83 109.87L304.57 110.97L304.32 112.13L304.08 113.35L303.84 114.62L303.6 115.94L303.37 117.31L303.14 118.73L302.92 120.19L302.7 121.68L302.48 123.21L302.27 124.78L302.06 126.37L301.86 127.99L301.66 129.64L301.46 131.3L301.27 132.99L301.08 134.68L300.9 136.4L300.72 138.12L300.54 139.84L300.36 141.57L300.19 143.3L300.02 145.03L299.86 146.75L299.69 148.47L299.53 150.17L299.38 151.86L299.23 153.52L299.07 155.17L298.93 156.8L298.78 158.4L298.74 158.91L298.69 159.42L298.64 159.93L298.6 160.44L298.55 160.95L298.5 161.46L298.46 161.97L298.41 162.49L298.36 163L298.32 163.52L298.27 164.03L298.22 164.55L298.17 165.07L298.13 165.59L298.08 166.11L298.03 166.62L297.98 167.14L297.94 167.67L297.89 168.19L297.84 168.71L297.79 169.23L297.74 169.75L297.69 170.28L297.64 170.8L297.59 171.33L297.54 171.85L297.49 172.38L297.44 172.9L297.39 173.43L297.34 173.96L297.29 174.48L297.24 175.01L297.19 175.54L297.14 176.07L297.09 176.6L297.04 177.12L296.98 177.65L296.93 178.18L296.88 178.71L296.83 179.24L295.39 193.55L282.19 187.85L282.12 187.82L282.03 187.79L281.92 187.76L281.79 187.72L281.65 187.68L281.48 187.63L281.3 187.57L281.11 187.51L280.89 187.45L280.66 187.38L280.42 187.31L280.15 187.23L279.88 187.15L279.58 187.06L279.28 186.97L278.95 186.87L278.62 186.77L278.27 186.67L277.91 186.56L277.53 186.45L277.14 186.34L276.74 186.22L276.32 186.09L275.9 185.97L275.46 185.84L275.01 185.71L274.55 185.57L274.08 185.43L273.6 185.29L273.11 185.14L272.61 184.99L272.09 184.84L271.57 184.69L271.05 184.53L270.51 184.37L269.96 184.21L269.41 184.05L268.85 183.88L268.28 183.71L267.71 183.54L266.49 183.18L265.87 183L265.24 182.81L264.61 182.63L263.97 182.44L263.33 182.25L262.68 182.05L262.03 181.86L261.37 181.67L260.71 181.47L260.05 181.27L259.38 181.07L258.71 180.87L258.03 180.67L257.36 180.47L256.68 180.27L256 180.07L255.31 179.86L254.63 179.66L253.94 179.45L253.26 179.25L252.57 179.04L251.88 178.84L251.19 178.63L250.51 178.43L249.82 178.22L249.13 178.01L248.45 177.81L247.77 177.6L247.08 177.4L246.4 177.19L245.73 176.99L245.05 176.79L244.38 176.58L243.71 176.38L243.04 176.18L242.38 175.98L241.72 175.78L241.07 175.58L240.26 175.33L239.45 175.09L238.65 174.85L237.85 174.62L237.05 174.39L236.25 174.16L235.46 173.94L234.67 173.72L233.88 173.51L233.1 173.3L232.31 173.09L231.54 172.89L230.76 172.69L229.99 172.49L229.22 172.3L228.45 172.11L227.69 171.93L226.93 171.75L226.17 171.57L225.42 171.4L224.67 171.23L223.92 171.07L223.18 170.91L222.44 170.75L221.7 170.6L220.97 170.45L220.24 170.31L219.51 170.17L218.79 170.03L218.07 169.9L217.36 169.77L216.64 169.64L215.93 169.52L215.23 169.4L214.53 169.29L213.83 169.18L213.13 169.08L212.44 168.98L211.75 168.88L211.07 168.79L210.4 168.7L209.74 168.62L209.08 168.53L208.42 168.45L207.77 168.37L207.13 168.3L206.49 168.22L205.85 168.15L205.22 168.08L204.59 168.01L203.96 167.95L203.35 167.88L202.73 167.82L202.12 167.76L201.52 167.71L200.92 167.65L200.32 167.6L199.73 167.55L199.15 167.5L198.57 167.45L197.99 167.41L197.42 167.37L196.85 167.33L196.29 167.29L195.74 167.26L195.19 167.23L194.64 167.2L194.1 167.17L193.56 167.14L193.03 167.12L192.5 167.1L191.98 167.08L191.47 167.06L190.96 167.05L190.45 167.03L189.95 167.02L189.45 167.02L188.96 167.01L188.48 167.01L188 167.01L187.66 167.01L187.34 167.01L187.02 167.01L186.71 167.02L186.4 167.02L186.1 167.03L185.81 167.03L185.53 167.04L185.25 167.05L184.98 167.06L184.72 167.07L184.46 167.08L184.21 167.09L183.97 167.1L183.73 167.11L183.5 167.13L183.27 167.14L183.05 167.15L182.84 167.17L182.63 167.18L182.44 167.2L182.24 167.21L182.05 167.23L181.87 167.25L181.7 167.26L181.53 167.28L181.36 167.3L181.2 167.31L181.05 167.33L180.9 167.35L180.76 167.36L180.63 167.38L180.5 167.4L180.37 167.41L180.25 167.43L180.14 167.45L180.03 167.46L179.92 167.48L179.83 167.49L179.73 167.51L179.7 167.55L179.68 167.57L179.66 167.59L179.66 167.6L179.64 167.62L179.63 167.63L179.62 167.65L179.61 167.66L179.6 167.67L179.59 167.68L179.58 167.7L179.57 167.71L179.57 167.72L179.56 167.74L179.55 167.74L179.54 167.76L179.54 167.77L179.53 167.77L179.53 167.78L179.53 167.78L179.53 167.78L179.53 167.79L179.53 167.79L179.53 167.8L179.54 167.83L179.54 167.84L179.54 167.85L179.54 167.86L179.54 167.88L179.54 167.89L179.54 167.91L179.54 167.93L179.54 167.95L179.55 167.97L179.55 167.99L179.55 168.02L179.56 168.04L179.56 168.07L179.56 168.09L179.57 168.12L179.57 168.15L179.58 168.18L179.58 168.21L179.59 168.25L179.6 168.28L179.6 168.32L179.61 168.35L179.62 168.39L179.63 168.43L179.64 168.47L179.65 168.51L179.67 168.56L179.68 168.6L179.69 168.65L179.71 168.69L179.72 168.74L179.85 169.06L180.01 169.39L180.22 169.72L180.48 170.07L180.77 170.43L181.11 170.79L181.49 171.17L181.91 171.56L182.36 171.95L182.86 172.36L183.39 172.77L183.97 173.2L184.58 173.64L185.22 174.08L185.91 174.54L186.62 175L187.38 175.48L188.16 175.96L188.98 176.45L189.84 176.96L190.72 177.47L191.64 177.99L192.59 178.52L193.56 179.06L194.57 179.62L195.61 180.18L196.67 180.74L197.77 181.32L198.89 181.91L200.03 182.51L201.21 183.12L202.41 183.73L203.63 184.36L204.88 184.99L206.15 185.63L207.44 186.29L208.76 186.95L210.1 187.62L211.46 188.3L212.84 188.99L247.21 205.91L239.92 216.02L239.87 216.08L239.83 216.14L239.78 216.2L239.74 216.26L239.7 216.32L239.65 216.39L239.61 216.45L239.56 216.51L239.52 216.57L239.48 216.63L239.43 216.7L239.39 216.76L239.35 216.82L239.3 216.88L239.26 216.95L239.22 217.01L239.17 217.07L239.13 217.13L239.08 217.2L239.04 217.26L239 217.32L238.95 217.39L238.91 217.45L238.87 217.51L238.82 217.58L238.78 217.64L238.73 217.7L238.69 217.77L238.65 217.83L238.6 217.9L238.56 217.96L238.51 218.03L238.47 218.09L238.33 218.29L238.28 218.36L238.24 218.43L238.19 218.49L238.15 218.56L238 218.78L237.85 218.99L237.69 219.22L237.54 219.45L237.38 219.68L237.21 219.92L237.04 220.16L236.87 220.41L236.69 220.67L236.51 220.93L236.32 221.19L236.13 221.47L235.93 221.75L235.73 222.04L235.52 222.33L235.3 222.63L235.08 222.94L234.85 223.26L234.61 223.58L234.37 223.92L234.12 224.26L233.86 224.61L233.6 224.97L233.32 225.34L233.04 225.72L232.75 226.11L232.45 226.51L232.15 226.91L231.83 227.33L231.5 227.76L231.17 228.2L230.82 228.65L230.46 229.12L230.1 229.59L229.72 230.07L229.33 230.57L228.93 231.08L228.52 231.6L228.1 232.14L227.67 232.69L227.54 232.85L227.41 233.02L227.28 233.18L227.14 233.35L227.01 233.52L226.87 233.69L226.74 233.86L226.6 234.04L226.46 234.21L226.32 234.39L226.18 234.57L226.03 234.74L225.89 234.92L225.74 235.1L225.6 235.29L225.45 235.47L225.3 235.65L225.15 235.84L225 236.03L224.85 236.22L224.7 236.4L224.55 236.59L224.39 236.79L224.24 236.98L224.08 237.17L223.93 237.37L223.77 237.56L223.61 237.76L223.45 237.96L223.29 238.16L223.13 238.36L222.97 238.56L222.8 238.76L222.64 238.97L222.47 239.17L222.31 239.38L222.14 239.59L221.97 239.79L221.8 240L221.63 240.21L221.02 240.97L220.36 241.79L219.65 242.67L218.9 243.6L218.11 244.59L217.28 245.63L216.42 246.71L215.52 247.84L214.59 249L213.64 250.21L212.66 251.45L211.66 252.72L210.64 254.03L209.61 255.35L208.56 256.71L207.5 258.08L206.43 259.47L205.36 260.88L204.29 262.29L203.22 263.72L202.15 265.15L201.08 266.59L200.03 268.03L198.98 269.46L197.95 270.89L196.94 272.31L195.95 273.71L194.98 275.11L194.03 276.48L193.11 277.84L192.23 279.17L191.37 280.48L190.56 281.76L189.78 283.01L189.04 284.22L188.35 285.39L187.7 286.53L187.11 287.62L186.57 288.66L186.08 289.66L186.45 289.54L186.83 289.42L187.21 289.28L187.6 289.13L188 288.98L188.4 288.82L188.8 288.64L189.21 288.46L189.62 288.27L190.04 288.08L190.46 287.88L190.88 287.67L191.3 287.45L191.73 287.23L192.16 287L192.59 286.77L193.02 286.53L193.46 286.29L193.89 286.04L194.33 285.79L194.76 285.53L195.2 285.28L195.63 285.02L196.07 284.76L196.5 284.49L196.94 284.22L197.37 283.96L197.8 283.69L198.22 283.42L198.65 283.15L199.07 282.88L199.49 282.61L199.91 282.35L200.32 282.08L200.73 281.81L201.13 281.55L201.53 281.29L201.93 281.03L202.32 280.78L202.7 280.53L202.88 280.41L203.05 280.3L203.22 280.19L203.4 280.07L203.57 279.96L203.75 279.84L203.92 279.73L204.09 279.62L204.26 279.51L204.44 279.39L204.61 279.28L204.78 279.17L204.95 279.06L205.12 278.95L205.29 278.84L205.46 278.73L205.63 278.62L205.8 278.51L205.97 278.4L206.14 278.29L206.3 278.19L206.47 278.08L206.64 277.97L206.81 277.87L206.97 277.76L207.14 277.66L207.31 277.55L207.47 277.45L207.64 277.34L207.8 277.24L207.96 277.14L208.13 277.03L208.29 276.93L208.45 276.83L208.62 276.73L208.78 276.63L208.94 276.53L209.1 276.44L209.26 276.34L209.42 276.24L211.17 275.19L212.91 274.14L214.65 273.1L216.38 272.06L218.11 271.03L219.83 270.01L221.54 269.01L223.25 268.01L224.95 267.02L226.64 266.05L228.33 265.09L230 264.15L231.68 263.22L233.34 262.31L234.99 261.43L236.64 260.56L238.28 259.71L239.9 258.89L241.52 258.09L243.13 257.32L244.73 256.57L246.32 255.85L247.9 255.16L249.48 254.5L251.03 253.87L252.58 253.27L254.12 252.7L255.65 252.17L257.16 251.68L258.67 251.22L260.16 250.8L261.64 250.42L263.11 250.08L264.56 249.78L266 249.52L267.43 249.31L268.84 249.15L270.25 249.02L271.63 248.95L273.01 248.93L274.85 248.98L276.61 249.12L278.3 249.35L279.91 249.65L281.44 250.03L282.9 250.49L284.3 251.02L285.62 251.61L286.88 252.28L288.07 253L289.21 253.79L290.28 254.63L291.29 255.53L292.25 256.49L293.15 257.49L294 258.53L294.8 259.63L295.55 260.76L296.26 261.93L296.92 263.13L297.53 264.37L298.11 265.64L298.65 266.93L299.15 268.25L299.62 269.59L300.05 270.94L300.45 272.32L300.83 273.7L301.18 275.09L301.5 276.5L301.8 277.9L302.08 279.31L302.34 280.71L302.58 282.11L302.81 283.51L303.02 284.89L303.22 286.26L303.42 287.62L303.6 288.96L303.78 290.27L303.87 290.87L303.95 291.47L304.03 292.07L304.12 292.67L304.2 293.28L304.28 293.88L304.37 294.48L304.46 295.09L304.55 295.69L304.63 296.29L304.73 296.9L304.82 297.5L304.91 298.11L305.01 298.71L305.1 299.31L305.2 299.91L305.31 300.52L305.41 301.12L305.52 301.72L305.62 302.31L305.74 302.91L305.85 303.51L305.97 304.1L306.09 304.7L306.21 305.29L306.34 305.88L306.47 306.47L306.6 307.05L306.74 307.64L306.88 308.22L307.02 308.8L307.17 309.38L307.32 309.95L307.48 310.52L307.64 311.09L307.81 311.66L307.98 312.23L308.15 312.79L308.34 313.34L308.52 313.9L308.66 314.29L308.8 314.68L308.96 315.06L309.12 315.45L309.29 315.83L309.47 316.21L309.65 316.59L309.84 316.96L310.04 317.33L310.25 317.69L310.46 318.05L310.67 318.41L310.89 318.75L311.11 319.09L311.34 319.43L311.57 319.76L311.8 320.08L312.04 320.39L312.28 320.69L312.52 320.98L312.76 321.27L313.01 321.54L313.25 321.8L313.49 322.05L313.74 322.29L313.98 322.52L314.23 322.74L314.47 322.94L314.71 323.13L314.95 323.3L315.18 323.46L315.42 323.61L315.65 323.74L315.87 323.85L316.1 323.95L316.32 324.03L316.53 324.1L316.74 324.14L316.94 324.17L317.14 324.18L317.15 324.18L317.17 324.18L317.18 324.18L317.2 324.18L317.21 324.18L317.23 324.18L317.25 324.18L317.26 324.18L317.28 324.18L317.29 324.17L317.31 324.17L317.32 324.17L317.34 324.17L317.36 324.17L317.37 324.17L317.39 324.17L317.4 324.16L317.42 324.16L317.44 324.16L317.45 324.16L317.47 324.16L317.49 324.15L317.5 324.15L317.52 324.15L317.54 324.15L317.55 324.14L317.57 324.14L317.59 324.14L317.6 324.13L317.62 324.13L317.64 324.13L317.65 324.12L317.67 324.12L317.69 324.12L317.71 324.11L317.72 324.11L317.74 324.11L317.76 324.1L317.78 324.1L317.79 324.09L318.16 323.99L318.52 323.85L318.86 323.69L319.19 323.51L319.51 323.31L319.82 323.08L320.11 322.83L320.39 322.56L320.66 322.28L320.92 321.97L321.17 321.65L321.4 321.31L321.63 320.96L321.84 320.59L322.05 320.21L322.25 319.82L322.43 319.42L322.61 319.01L322.77 318.59L322.93 318.16L323.08 317.73L323.22 317.29L323.36 316.84L323.48 316.39L323.6 315.94L323.71 315.48L323.81 315.03L323.91 314.57L324 314.12L324.08 313.67L324.16 313.22L324.23 312.77L324.29 312.34L324.35 311.9L324.4 311.48L324.45 311.06L324.5 310.65L324.54 310.25L324.57 309.87L324.6 309.49L324.88 305.93L324.96 304.84L325.05 303.76L325.13 302.68L325.21 301.6L325.3 300.52L325.38 299.46L325.47 298.39L325.56 297.33L325.65 296.28L325.74 295.23L325.83 294.19L325.93 293.15L326.03 292.13L326.13 291.1L326.23 290.09L326.34 289.08L326.45 288.08L326.56 287.09L326.68 286.11L326.8 285.14L326.93 284.18L327.06 283.22L327.2 282.28L327.34 281.35L327.49 280.42L327.64 279.51L327.8 278.61L327.97 277.72L328.14 276.84L328.31 275.97L328.5 275.12L328.69 274.28L328.89 273.45L329.09 272.63L329.31 271.83L329.53 271.04L329.76 270.27L330 269.51L330.24 268.76L330.5 268.03L330.77 267.39L331.07 266.74L331.38 266.09L331.72 265.44L332.08 264.79L332.47 264.14L332.88 263.49L333.31 262.84L333.77 262.2L334.26 261.56L334.78 260.93L335.33 260.31L335.9 259.69L336.51 259.09L337.15 258.49L337.82 257.9L338.52 257.33L339.26 256.77L340.04 256.22L340.84 255.69L341.69 255.17L342.57 254.67L343.49 254.19L344.45 253.73L345.45 253.29L346.49 252.87L347.57 252.47L348.7 252.09L349.86 251.74L351.07 251.42L352.33 251.12L353.63 250.84L354.98 250.6L356.37 250.38L357.82 250.2L359.31 250.05L360.85 249.93L362.44 249.84L364.09 249.78L365.78 249.77L367.9 249.79L370.05 249.87L372.23 249.99L374.43 250.16L376.66 250.37L378.91 250.62L381.17 250.91L383.45 251.24L385.74 251.6L388.03 252L390.33 252.42L392.62 252.87L394.91 253.35L397.19 253.85L399.46 254.37L401.72 254.92L403.96 255.47L406.17 256.05L408.36 256.63L410.53 257.23L412.66 257.83L414.75 258.44L416.81 259.05L418.82 259.66L420.79 260.28L422.71 260.88L424.58 261.49L426.39 262.09L428.14 262.67L429.82 263.25L431.45 263.81L433 264.36L434.48 264.88L435.88 265.39L437.2 265.87L438.44 266.33L439.59 266.76L440.65 267.16L441.62 267.53L442.49 267.87L443.15 268.13L443.79 268.37L444.43 268.61L445.06 268.84L445.67 269.06L446.27 269.27L446.86 269.48L447.44 269.67L448.01 269.86L448.56 270.04L449.1 270.21L449.63 270.37L450.15 270.52L450.66 270.66L451.15 270.8L451.63 270.92L452.1 271.04L452.56 271.14L453.01 271.24L453.44 271.33L453.86 271.41L454.27 271.48L454.67 271.55L455.05 271.6L455.42 271.64L455.78 271.68L456.13 271.7L456.46 271.72L456.78 271.72L457.09 271.72L457.38 271.71L457.67 271.69L457.94 271.66L458.2 271.62L458.44 271.56L458.67 271.5L458.89 271.44L459.1 271.36L459.29 271.27L459.47 271.17L459.13 270.7L458.75 270.21L458.33 269.7L457.88 269.18L457.4 268.65L456.88 268.1L456.33 267.53L455.76 266.96L455.16 266.37L454.54 265.77L453.89 265.17L453.23 264.56L452.55 263.94L451.85 263.32L451.13 262.69L450.41 262.07L449.67 261.44L448.92 260.81L448.17 260.18L447.41 259.55L446.65 258.92L445.88 258.3L445.12 257.69L444.36 257.08L443.6 256.47L442.85 255.88L442.11 255.3L441.37 254.72L440.65 254.16L439.94 253.62L439.25 253.08L438.57 252.56L437.92 252.06L437.28 251.58L436.67 251.11L436.08 250.67L435.52 250.24L434.98 249.84L434.48 249.46L434.01 249.11L433.68 248.86L433.36 248.62L433.04 248.38L432.72 248.14L432.41 247.91L432.1 247.67L431.8 247.44L431.5 247.22L431.2 246.99L430.91 246.77L430.62 246.55L430.33 246.33L430.05 246.12L429.77 245.91L429.5 245.7L429.23 245.49L428.96 245.28L428.7 245.08L428.44 244.88L428.19 244.69L427.94 244.49L427.7 244.3L427.46 244.11L427.22 243.92L426.99 243.74L426.76 243.55L426.54 243.37L426.32 243.2L426.11 243.02L425.9 242.85L425.7 242.68L425.5 242.51L425.3 242.34L425.11 242.18L424.93 242.02L424.75 241.86L424.57 241.71L424.4 241.55L424.23 241.4L424.07 241.25L423.92 241.11L423.75 240.96L423.57 240.8L423.39 240.64L423.19 240.48L422.98 240.31L422.77 240.13L422.55 239.95L422.31 239.77L422.07 239.58L421.83 239.39L421.57 239.2L421.31 239L421.04 238.79L420.76 238.59L420.48 238.38L420.19 238.17L419.9 237.95L419.6 237.74L419.3 237.52L418.99 237.3L418.68 237.07L418.37 236.85L418.05 236.62L417.73 236.39L417.4 236.16L417.08 235.93L416.75 235.7L416.42 235.47L416.09 235.24L415.75 235L415.42 234.77L415.09 234.54L414.75 234.3L414.42 234.07L414.08 233.84L413.75 233.61L413.42 233.38L413.09 233.15L412.76 232.92L411.59 232.11L410.43 231.31L409.3 230.52L408.2 229.75L407.11 228.98L406.05 228.23L405.02 227.49L404.01 226.75L403.02 226.02L402.07 225.31L401.14 224.6L400.25 223.89L399.38 223.19L398.54 222.5L397.74 221.81L396.97 221.13L396.23 220.44L395.53 219.77L394.86 219.09L394.22 218.41L393.63 217.74L393.07 217.06L392.55 216.38L392.07 215.71L391.63 215.03L391.23 214.34L390.87 213.66L390.56 212.97L390.28 212.27L390.06 211.57L389.87 210.86L389.74 210.15L389.65 209.43L389.61 208.7L389.61 207.96L389.67 207.21L389.78 206.45L389.93 205.68L390.14 204.9L390.4 204.11L390.64 203.5L390.89 202.92L391.16 202.36L391.45 201.82L391.76 201.3L392.09 200.79L392.43 200.31L392.78 199.84L393.16 199.39L393.54 198.96L393.94 198.55L394.35 198.15L394.77 197.77L395.2 197.4L395.64 197.05L396.09 196.71L396.54 196.39L397 196.08L397.47 195.79L397.95 195.5L398.42 195.23L398.9 194.98L399.39 194.73L399.87 194.49L400.36 194.27L400.84 194.06L401.33 193.85L401.81 193.66L402.29 193.47L402.76 193.29L403.23 193.13L403.7 192.96L404.16 192.81L404.61 192.66L405.06 192.52L405.49 192.39L405.92 192.26L406.33 192.13L406.74 192.02L407.13 191.9L407.21 191.88L407.28 191.86L407.36 191.84L407.44 191.81L407.51 191.79L407.59 191.77L407.81 191.71L407.88 191.69L407.96 191.67L408.03 191.65L408.1 191.63L408.17 191.61L408.25 191.59L408.32 191.57L408.39 191.55L408.46 191.53L408.53 191.51L408.6 191.49L408.66 191.47L408.73 191.44L408.8 191.42L408.86 191.4L408.93 191.38L408.99 191.36L409.06 191.34L409.12 191.32L409.19 191.3L409.25 191.28L409.31 191.26L409.37 191.24L409.43 191.21L409.49 191.19L409.55 191.17L409.6 191.15L409.66 191.12L409.72 191.1L409.77 191.08L409.82 191.06L411.16 190.42L412.6 189.86L413.98 189.31L415.3 188.78L416.56 188.27L417.76 187.76L418.91 187.27L420 186.8L421.03 186.33L422.01 185.88L422.95 185.43L423.83 185L424.66 184.58L425.45 184.16L426.2 183.76L426.9 183.36L427.56 182.97L428.18 182.58L428.76 182.21L429.31 181.84L429.82 181.47L430.29 181.11L430.74 180.75L431.15 180.4L431.53 180.04L431.89 179.7L432.22 179.35L432.53 179L432.81 178.66L433.07 178.31L433.31 177.97L433.54 177.62L433.74 177.28L433.93 176.93L434.11 176.58L434.28 176.22L434.43 175.86L434.57 175.5L434.71 175.14L434.84 174.76L434.97 174.38L434.93 174.3L434.88 174.22L434.84 174.13L434.79 174.04L434.74 173.95L434.69 173.86L434.64 173.77L434.59 173.67L434.54 173.58L434.48 173.49L434.43 173.39L434.37 173.29L434.32 173.2L434.26 173.1L434.2 173L434.14 172.91L434.08 172.81L434.03 172.71L433.97 172.61L433.91 172.52L433.85 172.42L433.79 172.32L433.73 172.23L433.67 172.13L433.61 172.04L433.55 171.94L433.49 171.85L433.43 171.76L433.37 171.67L433.32 171.58L433.26 171.49L433.21 171.4L433.15 171.32L433.1 171.23L433.04 171.15L432.99 171.07L432.94 170.99L432.89 170.92L432.84 170.84L432.8 170.77L432.69 170.73L432.57 170.69L432.44 170.64L432.31 170.6L432.16 170.55L432 170.5L431.84 170.46L431.67 170.41L431.48 170.36L431.29 170.31L431.09 170.26L430.88 170.21L430.65 170.17L430.42 170.12L430.18 170.07L429.93 170.02L429.67 169.97L429.4 169.93L429.12 169.88L428.82 169.84L428.52 169.79L428.21 169.75L427.88 169.71L427.55 169.67L427.21 169.63L426.85 169.59L426.49 169.56L426.11 169.53L425.72 169.5L425.32 169.47L424.91 169.44L424.49 169.41L424.06 169.39L423.62 169.37L423.16 169.36L422.7 169.34L422.22 169.33L421.73 169.32L421.23 169.32L420.72 169.32L420.49 169.32L420.25 169.32L420.02 169.32L419.78 169.32L419.55 169.32L419.31 169.33L419.08 169.33L418.85 169.34L418.61 169.34L418.38 169.35L418.14 169.36L417.91 169.37L417.67 169.38L417.44 169.38L417.2 169.39L416.97 169.41L416.73 169.42L416.5 169.43L416.26 169.44L416.03 169.46L415.8 169.47L415.57 169.48L415.33 169.5L415.1 169.52L414.87 169.53L414.64 169.55L414.41 169.57L414.18 169.59L413.95 169.61L413.72 169.63L413.49 169.65L413.26 169.67L413.04 169.69L412.81 169.71L412.59 169.74L412.36 169.76L412.14 169.79L411.92 169.81L411.69 169.84L411.34 169.88L411.21 169.9L411.08 169.91L410.94 169.93L410.8 169.94L410.65 169.96L410.5 169.98L410.35 170L410.19 170.01L410.03 170.03L409.87 170.05L409.71 170.07L409.54 170.09L409.37 170.11L409.19 170.12L409.01 170.14L408.83 170.16L408.65 170.18L408.46 170.2L408.27 170.22L408.08 170.25L407.88 170.27L407.68 170.29L407.48 170.31L407.27 170.33L407.06 170.35L406.85 170.38L406.64 170.4L406.42 170.42L406.2 170.45L405.98 170.47L405.75 170.49L405.53 170.52L405.3 170.54L405.06 170.57L404.83 170.59L404.59 170.62L404.35 170.64L404.1 170.67L403.85 170.69L402.55 170.83L401.16 170.98L399.69 171.13L398.15 171.3L396.54 171.47L394.86 171.66L393.12 171.85L391.33 172.05L389.47 172.26L387.57 172.48L385.62 172.71L383.62 172.95L381.59 173.2L379.51 173.46L377.41 173.73L375.28 174.01L373.12 174.29L370.94 174.59L368.74 174.9L366.53 175.21L364.31 175.54L362.08 175.88L359.85 176.23L357.62 176.58L355.4 176.95L353.18 177.33L350.98 177.72L348.79 178.11L346.62 178.52L344.48 178.94L342.36 179.37L340.28 179.81L338.23 180.26L336.21 180.72L334.24 181.19L332.32 181.67L330.45 182.16L328.63 182.66L326.86 183.18L325.16 183.7L310.17 188.46L311.5 172.79L311.61 171.59L311.72 170.39L311.84 169.22L311.96 168.05L312.09 166.89L312.23 165.75L312.37 164.61L312.52 163.49L312.67 162.38L312.83 161.28L312.99 160.19L313.15 159.11L313.32 158.04L313.5 156.99L313.67 155.94L313.85 154.91L314.04 153.89L314.22 152.87L314.41 151.87L314.6 150.88L314.8 149.9L314.99 148.93L315.19 147.97L315.39 147.02L315.59 146.08L315.79 145.15L315.99 144.23L316.19 143.32L316.4 142.43L316.6 141.54L316.8 140.66L317.01 139.79L317.21 138.94L317.41 138.09L317.61 137.25L317.81 136.42L318.01 135.61L318.2 134.8L318.4 134L318.59 133.21L318.79 132.41L318.98 131.61L319.17 130.83L319.36 130.05L319.54 129.28L319.72 128.52L319.9 127.77L320.07 127.03L320.24 126.3L320.41 125.58L320.57 124.86L320.72 124.16L320.87 123.46L321.01 122.77L321.15 122.1L321.28 121.43L321.4 120.77L321.52 120.12L321.63 119.48L321.73 118.85L321.83 118.23L321.91 117.62L321.99 117.02L322.06 116.43L322.12 115.85L322.17 115.29L322.21 114.73L322.25 114.18L322.27 113.64L322.28 113.11L322.28 112.59L322.27 112.08L322.25 111.58L322.22 111.1L322.18 110.62L322.12 110.16L322.05 109.7L321.97 109.26L321.88 108.83L321.77 108.4L321.67 108.05L321.55 107.72L321.41 107.39L321.26 107.07L321.1 106.77L320.93 106.47L320.74 106.19L320.54 105.92L320.33 105.65L320.11 105.4L319.88 105.16L319.64 104.92L319.39 104.7L319.13 104.49L318.87 104.28L318.6 104.09L318.32 103.9L318.04 103.73L317.75 103.56L317.46 103.4L317.16 103.25L316.86 103.11L316.56 102.98L316.25 102.86L315.95 102.75L315.64 102.64L315.33 102.54L315.02 102.45L314.72 102.37L314.41 102.29L314.11 102.23L313.81 102.17L313.51 102.12L313.21 102.07L312.92 102.04L312.64 102.01L312.36 101.98L312.09 101.97L311.82 101.96L311.56 101.95L311.38 101.95L311.21 101.96Z" id="b95vLb6rQ"></path></defs><g><g><use xlink:href="#b95vLb6rQ" opacity="1" fill="#000000" fill-opacity="1"></use><g><use xlink:href="#b95vLb6rQ" opacity="1" fill-opacity="0" stroke="#000000" stroke-width="1" stroke-opacity="0"></use></g></g></g></svg>