<?xml version="1.0" encoding="UTF-8" standalone="no"?>
<!DOCTYPE svg PUBLIC "-//W3C//DTD SVG 1.1//EN" "http://www.w3.org/Graphics/SVG/1.1/DTD/svg11.dtd">
<svg version="1.1" xmlns="http://www.w3.org/2000/svg" xmlns:xlink="http://www.w3.org/1999/xlink" preserveAspectRatio="xMidYMid meet" viewBox="77.80829597634728 5.289775858083637 484.2560000000003 490.52799999999996" width="480.26" height="486.53"><defs><path d="M342.71 6.42L344.3 6.56L345.85 6.75L347.35 6.98L348.78 7.27L350.14 7.59L351.42 7.97L352.61 8.39L353.7 8.87L354.69 9.38L355.56 9.95L356.31 10.56L356.93 11.22L357.4 11.92L357.72 12.68L357.89 13.47L357.88 14.32L357.7 15.21L357.34 16.15L356.99 16.97L356.63 17.83L356.28 18.73L355.91 19.67L355.54 20.64L355.17 21.64L354.8 22.68L354.42 23.75L354.03 24.85L353.65 25.98L353.26 27.14L352.87 28.32L352.48 29.54L352.09 30.78L351.69 32.05L351.3 33.34L350.9 34.66L350.51 36L350.11 37.36L349.72 38.74L349.33 40.14L348.94 41.56L348.55 43L348.16 44.46L347.77 45.93L347.39 47.42L347.01 48.92L346.63 50.44L346.26 51.97L345.89 53.51L345.52 55.07L345.16 56.63L344.81 58.2L344.46 59.78L344.11 61.37L343.77 62.97L343.44 64.57L343.12 66.17L342.8 67.78L342.49 69.39L344.77 69.71L347.06 70.05L349.38 70.4L351.72 70.77L354.08 71.16L356.45 71.56L358.84 71.98L361.24 72.42L363.65 72.87L366.08 73.33L368.52 73.81L370.96 74.3L373.41 74.8L375.87 75.31L378.34 75.84L380.8 76.37L383.27 76.92L385.74 77.47L388.21 78.04L390.68 78.61L393.15 79.19L395.61 79.78L398.06 80.37L400.51 80.97L402.95 81.57L405.38 82.18L407.81 82.8L410.22 83.41L412.61 84.03L414.99 84.66L417.36 85.28L419.71 85.91L422.04 86.54L424.35 87.16L426.64 87.79L428.9 88.42L431.15 89.04L433.36 89.66L435.56 90.28L437.72 90.9L438.82 91.26L439.91 91.65L440.97 92.07L442.02 92.52L443.04 93L444.04 93.51L445.02 94.04L445.98 94.6L446.92 95.19L447.83 95.8L448.72 96.44L449.59 97.1L450.43 97.79L451.25 98.51L452.05 99.24L452.82 100L453.56 100.78L454.28 101.58L454.97 102.41L455.64 103.25L456.28 104.11L456.89 105L457.48 105.9L458.03 106.82L458.56 107.76L459.06 108.72L459.53 109.69L459.97 110.69L460.38 111.69L460.76 112.71L461.11 113.75L461.43 114.8L461.71 115.87L461.97 116.95L462.19 118.04L462.38 119.14L462.54 120.26L462.66 121.38L462.75 122.52L462.81 123.67L467.15 126.51L471.41 129.44L475.59 132.44L479.69 135.52L483.7 138.69L487.63 141.92L491.48 145.23L495.23 148.62L498.9 152.07L502.47 155.6L505.95 159.2L509.34 162.86L512.63 166.59L515.82 170.39L518.91 174.25L521.91 178.17L524.79 182.15L527.58 186.19L530.25 190.29L532.82 194.45L535.28 198.66L537.63 202.93L539.87 207.25L541.99 211.62L544 216.05L545.89 220.52L547.66 225.04L549.3 229.6L550.83 234.21L552.23 238.87L553.51 243.56L554.66 248.3L555.68 253.08L556.57 257.89L557.32 262.74L557.95 267.63L558.43 272.55L558.78 277.5L558.99 282.49L559.06 287.51L558.86 295.95L558.27 304.31L557.28 312.58L555.92 320.75L554.19 328.81L552.08 336.77L549.63 344.6L546.82 352.31L543.67 359.88L540.19 367.32L536.39 374.61L532.26 381.75L527.82 388.73L523.08 395.55L518.05 402.19L512.73 408.66L507.13 414.94L501.26 421.02L495.12 426.91L488.73 432.59L482.09 438.06L475.2 443.32L468.09 448.34L460.75 453.14L453.19 457.69L445.42 462L437.45 466.06L429.28 469.86L420.93 473.39L412.4 476.65L403.7 479.63L394.83 482.33L385.81 484.73L376.64 486.84L367.33 488.64L357.88 490.12L348.31 491.29L338.63 492.14L328.83 492.65L318.94 492.82L309.08 492.65L299.31 492.14L289.66 491.29L280.11 490.12L270.69 488.64L261.4 486.84L252.25 484.73L243.24 482.33L234.38 479.63L225.69 476.65L217.16 473.39L208.81 469.86L200.65 466.06L192.68 462L184.91 457.69L177.35 453.14L170 448.34L162.88 443.32L155.99 438.06L149.34 432.59L142.93 426.91L136.79 421.02L130.9 414.94L125.29 408.66L119.96 402.19L114.91 395.55L110.16 388.73L105.71 381.75L101.57 374.61L97.75 367.32L94.26 359.88L91.1 352.31L88.28 344.6L85.82 336.77L83.71 328.81L81.97 320.75L80.6 312.58L79.61 304.31L79.01 295.95L78.81 287.51L78.87 282.68L79.07 277.88L79.4 273.11L79.85 268.36L80.43 263.65L81.14 258.97L81.97 254.32L82.92 249.7L84 245.12L85.19 240.57L86.5 236.06L87.93 231.59L89.48 227.16L91.13 222.76L92.9 218.41L94.78 214.11L96.77 209.84L98.87 205.62L101.07 201.45L103.38 197.33L105.8 193.26L108.31 189.23L110.93 185.26L113.64 181.34L116.46 177.47L119.37 173.66L122.37 169.9L125.47 166.21L128.66 162.57L131.94 158.99L135.32 155.47L138.77 152.01L142.32 148.62L145.95 145.29L149.66 142.02L153.46 138.83L157.33 135.7L161.29 132.64L165.32 129.65L169.43 126.74L169.39 126.62L169.36 126.51L169.33 126.39L169.29 126.28L169.26 126.16L169.23 126.04L169.21 125.93L169.18 125.81L169.16 125.7L169.14 125.58L169.12 125.46L169.1 125.34L169.08 125.22L169.06 125.1L169.05 124.98L169.03 124.86L169.02 124.74L169.01 124.62L168.99 124.49L168.98 124.37L168.98 124.24L168.97 124.12L168.96 123.99L168.95 123.86L168.95 123.73L168.94 123.6L168.94 123.47L168.93 123.34L168.93 123.2L168.93 123.07L168.93 122.93L168.92 122.79L168.92 122.65L168.92 122.51L168.92 122.36L168.92 122.22L168.92 122.07L168.92 121.92L168.92 121.77L168.92 121.62L168.94 120.43L169 119.26L169.1 118.09L169.24 116.94L169.41 115.8L169.63 114.67L169.88 113.56L170.16 112.46L170.48 111.37L170.84 110.3L171.23 109.24L171.66 108.2L172.12 107.18L172.61 106.18L173.13 105.19L173.69 104.23L174.27 103.28L174.89 102.35L175.54 101.45L176.22 100.56L176.92 99.7L177.66 98.86L178.42 98.04L179.21 97.25L180.02 96.48L180.86 95.74L181.73 95.02L182.62 94.33L183.53 93.67L184.47 93.03L185.43 92.43L186.42 91.85L187.42 91.3L188.45 90.78L189.5 90.29L190.57 89.84L191.66 89.41L192.76 89.02L193.89 88.66L195.03 88.34L197.51 87.72L200.03 87.1L202.58 86.47L205.16 85.84L207.78 85.21L210.43 84.58L213.11 83.94L215.81 83.31L218.53 82.67L221.28 82.04L224.05 81.41L226.83 80.79L229.63 80.16L232.45 79.54L235.27 78.93L238.11 78.33L240.95 77.73L243.79 77.14L246.64 76.56L249.5 75.99L252.35 75.42L255.19 74.88L258.04 74.34L260.87 73.81L263.7 73.3L266.51 72.81L269.31 72.33L272.1 71.86L274.87 71.41L277.62 70.99L280.34 70.58L283.05 70.18L285.73 69.81L288.38 69.46L291 69.14L293.58 68.83L296.14 68.55L298.66 68.29L301.14 68.06L303.58 67.86L303.85 66.17L304.12 64.49L304.39 62.82L304.66 61.16L304.94 59.5L305.22 57.86L305.49 56.23L305.77 54.61L306.05 53.01L306.33 51.42L306.61 49.84L306.88 48.29L307.16 46.75L307.44 45.23L307.72 43.73L307.99 42.25L308.27 40.79L308.54 39.36L308.81 37.95L309.08 36.56L309.35 35.2L309.61 33.87L309.88 32.56L310.14 31.29L310.4 30.04L310.65 28.83L310.9 27.64L311.15 26.49L311.4 25.38L311.64 24.3L311.88 23.25L312.11 22.24L312.34 21.27L312.57 20.34L312.79 19.45L313 18.6L313.22 17.79L313.42 17.03L313.62 16.31L313.82 15.63L314.2 14.7L314.73 13.81L315.4 12.98L316.2 12.19L317.11 11.46L318.14 10.77L319.28 10.13L320.51 9.54L321.82 9L323.21 8.51L324.67 8.07L326.18 7.68L327.75 7.34L329.36 7.04L331.01 6.8L332.67 6.6L334.36 6.45L336.05 6.35L337.74 6.29L339.42 6.29L341.08 6.33L342.71 6.42ZM448.8 150.82L448.45 151.08L448.1 151.33L447.74 151.58L447.39 151.83L447.03 152.07L446.67 152.31L446.3 152.55L445.94 152.78L445.57 153L445.2 153.23L444.82 153.44L444.45 153.65L444.07 153.86L443.69 154.07L443.3 154.27L442.92 154.46L442.53 154.65L442.14 154.83L441.74 155.01L441.34 155.19L440.94 155.36L440.54 155.52L440.13 155.68L439.72 155.84L439.31 155.99L438.89 156.14L438.47 156.28L438.05 156.41L437.62 156.54L437.19 156.66L436.76 156.78L436.32 156.9L435.88 157L435.44 157.11L434.99 157.2L434.54 157.29L434.08 157.38L433.62 157.46L422.87 159.51L454.62 218.39L455.06 219.2L455.49 220.01L455.89 220.84L456.26 221.67L456.61 222.51L456.94 223.35L457.24 224.2L457.51 225.05L457.76 225.91L457.99 226.77L458.2 227.64L458.38 228.5L458.53 229.38L458.67 230.25L458.77 231.13L458.86 232.01L458.92 232.89L458.96 233.77L458.98 234.65L458.97 235.54L458.94 236.42L458.88 237.3L458.81 238.19L458.71 239.07L458.59 239.95L458.44 240.82L458.27 241.7L458.09 242.57L457.87 243.44L457.64 244.31L457.38 245.17L457.11 246.03L456.81 246.88L456.49 247.73L456.14 248.57L455.78 249.41L455.39 250.24L454.98 251.06L454.55 251.88L454.1 252.69L453.63 253.45L453.14 254.2L452.64 254.93L452.11 255.65L451.57 256.36L451.01 257.05L450.43 257.72L449.84 258.38L449.23 259.02L448.6 259.65L447.96 260.26L447.3 260.86L446.63 261.43L445.95 261.99L445.25 262.54L444.54 263.06L443.81 263.57L443.07 264.06L442.32 264.53L441.56 264.98L440.79 265.41L440 265.82L439.21 266.21L438.4 266.59L437.58 266.94L436.76 267.27L435.92 267.58L435.08 267.87L434.23 268.14L433.37 268.39L432.5 268.61L431.63 268.81L430.74 268.99L429.85 269.15L428.96 269.28L428.06 269.39L427.15 269.47L426.24 269.54L425.33 269.57L424.41 269.59L423.95 269.58L423.49 269.57L423.03 269.56L422.57 269.54L422.11 269.51L421.65 269.48L421.19 269.44L420.73 269.4L420.27 269.35L419.82 269.3L419.36 269.24L418.91 269.17L418.45 269.1L418 269.02L417.55 268.94L417.1 268.85L416.65 268.75L416.21 268.65L415.76 268.55L415.32 268.43L414.88 268.32L414.44 268.19L414 268.06L413.57 267.93L413.14 267.79L412.71 267.64L412.28 267.49L411.86 267.33L411.44 267.16L411.02 266.99L410.6 266.82L410.19 266.64L409.78 266.45L409.37 266.26L408.97 266.06L408.57 265.85L408.17 265.64L407.78 265.43L407.39 265.21L407 264.98L319.96 213.78L234.97 265.49L234.58 265.75L234.19 266.01L233.79 266.26L233.39 266.5L232.98 266.74L232.57 266.97L232.15 267.19L231.73 267.4L231.3 267.6L230.87 267.8L230.44 267.99L230 268.18L229.56 268.35L229.12 268.52L228.67 268.68L228.22 268.84L227.77 268.99L227.31 269.13L226.85 269.27L226.39 269.39L225.93 269.52L225.47 269.63L225 269.74L224.54 269.84L224.07 269.93L223.6 270.02L223.13 270.11L222.66 270.18L222.19 270.25L221.72 270.31L221.25 270.37L220.78 270.42L220.31 270.47L219.84 270.5L219.37 270.54L218.9 270.56L218.44 270.58L217.97 270.6L217.51 270.61L217.05 270.61L216.17 270.6L215.29 270.57L214.42 270.52L213.55 270.44L212.69 270.35L211.83 270.23L210.98 270.1L210.13 269.94L209.29 269.77L208.46 269.57L207.63 269.35L206.81 269.12L206 268.86L205.19 268.58L204.39 268.29L203.61 267.97L202.82 267.64L202.05 267.28L201.29 266.91L200.54 266.51L199.79 266.1L199.06 265.67L198.33 265.22L197.62 264.75L196.92 264.26L196.23 263.75L195.55 263.23L194.88 262.68L194.22 262.12L193.58 261.54L192.94 260.94L192.32 260.32L191.72 259.68L191.13 259.03L190.55 258.36L189.98 257.67L189.43 256.96L188.89 256.24L188.37 255.5L187.86 254.74L187.38 253.97L186.91 253.19L186.46 252.4L186.04 251.61L185.63 250.81L185.25 250L184.89 249.19L184.55 248.38L184.23 247.56L183.94 246.73L183.66 245.9L183.41 245.07L183.18 244.23L182.97 243.39L182.78 242.54L182.61 241.7L182.47 240.85L182.35 240L182.25 239.14L182.17 238.29L182.11 237.43L182.08 236.58L182.07 235.72L182.08 234.87L182.11 234.01L182.16 233.16L182.24 232.3L182.34 231.45L182.46 230.6L182.61 229.75L182.78 228.91L182.97 228.06L183.18 227.22L183.41 226.39L183.67 225.55L183.95 224.73L184.26 223.9L184.58 223.08L184.93 222.27L185.3 221.46L213.46 160.02L195.03 155.41L194.8 155.37L194.57 155.33L194.34 155.28L194.11 155.23L193.88 155.17L193.65 155.11L193.42 155.05L193.19 154.99L192.96 154.92L192.74 154.85L192.51 154.78L192.28 154.7L192.05 154.62L191.83 154.54L191.6 154.46L191.38 154.37L191.15 154.28L190.93 154.19L190.71 154.1L190.49 154L190.27 153.9L190.05 153.81L189.83 153.71L189.61 153.6L189.4 153.5L189.18 153.39L188.97 153.29L188.76 153.18L188.55 153.07L188.34 152.96L188.13 152.85L187.92 152.74L187.72 152.63L187.51 152.51L187.31 152.4L187.11 152.29L186.91 152.17L186.72 152.06L186.52 151.94L186.33 151.83L182.79 154.28L179.32 156.79L175.91 159.36L172.58 161.98L169.31 164.67L166.12 167.41L163 170.21L159.95 173.06L156.98 175.97L154.08 178.93L151.26 181.94L148.52 185L145.86 188.12L143.28 191.28L140.78 194.49L138.36 197.74L136.03 201.04L133.79 204.39L131.63 207.78L129.56 211.22L127.58 214.69L125.69 218.21L123.89 221.77L122.18 225.37L120.57 229.01L119.06 232.68L117.64 236.39L116.31 240.14L115.09 243.92L113.97 247.73L112.95 251.58L112.03 255.45L111.21 259.36L110.5 263.3L109.9 267.27L109.4 271.27L109.01 275.29L108.73 279.34L108.56 283.41L108.5 287.51L108.68 294.73L109.21 301.88L110.07 308.94L111.27 315.92L112.8 322.81L114.65 329.61L116.81 336.29L119.28 342.88L122.05 349.34L125.11 355.69L128.46 361.91L132.09 368L135.99 373.96L140.15 379.77L144.58 385.43L149.25 390.95L154.17 396.3L159.33 401.49L164.72 406.5L170.33 411.35L176.16 416.01L182.2 420.48L188.44 424.76L194.88 428.84L201.5 432.72L208.31 436.39L215.3 439.84L222.45 443.08L229.77 446.08L237.24 448.86L244.86 451.39L252.62 453.69L260.51 455.73L268.53 457.52L276.67 459.05L284.93 460.32L293.29 461.31L301.75 462.03L310.3 462.46L318.94 462.61L327.57 462.46L336.13 462.03L344.59 461.31L352.95 460.32L361.2 459.05L369.34 457.52L377.36 455.73L385.25 453.69L393.01 451.39L400.63 448.86L408.1 446.08L415.42 443.08L422.57 439.84L429.56 436.39L436.37 432.72L443 428.84L449.43 424.76L455.68 420.48L461.72 416.01L467.54 411.35L473.16 406.5L478.54 401.49L483.7 396.3L488.62 390.95L493.3 385.43L497.72 379.77L501.88 373.96L505.78 368L509.41 361.91L512.76 355.69L515.82 349.34L518.59 342.88L521.06 336.29L523.22 329.61L525.07 322.81L526.6 315.92L527.8 308.94L528.67 301.88L529.19 294.73L529.37 287.51L529.31 283.41L529.14 279.33L528.85 275.27L528.45 271.24L527.93 267.22L527.31 263.24L526.57 259.28L525.73 255.34L524.78 251.44L523.73 247.56L522.57 243.72L521.31 239.9L519.95 236.12L518.48 232.37L516.92 228.65L515.26 224.98L513.51 221.33L511.65 217.73L509.71 214.17L507.67 210.64L505.54 207.16L503.33 203.72L501.02 200.32L498.62 196.97L496.14 193.66L493.58 190.4L490.93 187.19L488.2 184.02L485.39 180.91L482.5 177.85L479.53 174.84L476.48 171.88L473.36 168.98L470.16 166.14L466.89 163.35L463.55 160.62L460.14 157.94L456.66 155.33L453.11 152.78L449.5 150.29L449.15 150.56L448.8 150.82ZM295.23 99.09L292.79 99.38L290.31 99.69L287.81 100.02L285.28 100.37L282.72 100.75L280.14 101.14L277.54 101.55L274.93 101.97L272.3 102.41L269.66 102.86L267.01 103.33L264.35 103.81L261.7 104.3L259.04 104.8L256.39 105.32L253.74 105.84L251.1 106.36L248.47 106.9L245.86 107.44L243.26 107.98L240.69 108.53L238.13 109.08L235.61 109.64L233.11 110.19L230.64 110.75L228.21 111.3L225.81 111.85L223.46 112.4L221.14 112.95L218.88 113.49L216.66 114.02L214.49 114.55L212.37 115.07L210.32 115.58L208.32 116.08L206.38 116.57L204.51 117.05L202.71 117.52L202.38 117.65L202.06 117.79L201.75 117.95L201.47 118.13L201.2 118.32L200.95 118.52L200.72 118.74L200.5 118.97L200.3 119.21L200.12 119.47L199.96 119.73L199.81 120L199.68 120.27L199.57 120.56L199.47 120.84L199.39 121.13L199.33 121.43L199.29 121.73L199.26 122.02L199.26 122.32L199.26 122.62L199.29 122.91L199.33 123.21L199.39 123.49L199.47 123.78L199.57 124.05L199.68 124.32L199.81 124.59L199.96 124.84L200.12 125.08L200.3 125.31L200.5 125.53L200.72 125.74L200.95 125.93L201.2 126.11L201.47 126.27L201.75 126.42L202.06 126.54L202.38 126.65L202.71 126.74L250.33 139.03L250.52 139.07L250.7 139.12L250.89 139.18L251.06 139.25L251.24 139.33L251.41 139.42L251.57 139.51L251.73 139.62L251.88 139.73L252.03 139.84L252.18 139.97L252.31 140.09L252.45 140.23L252.57 140.37L252.7 140.52L252.81 140.67L252.92 140.83L253.02 140.99L253.12 141.16L253.21 141.33L253.29 141.5L253.37 141.68L253.44 141.86L253.5 142.05L253.55 142.24L253.6 142.43L253.64 142.62L253.67 142.81L253.7 143.01L253.71 143.2L253.72 143.4L253.72 143.6L253.71 143.8L253.69 143.99L253.67 144.19L253.63 144.39L253.59 144.59L253.53 144.78L253.47 144.98L253.4 145.17L212.95 233.75L212.84 234.01L212.75 234.28L212.67 234.54L212.61 234.8L212.56 235.06L212.53 235.32L212.5 235.57L212.49 235.81L212.5 236.06L212.51 236.3L212.54 236.53L212.58 236.76L212.63 236.99L212.69 237.21L212.76 237.43L212.85 237.64L212.94 237.84L213.04 238.04L213.15 238.23L213.27 238.42L213.4 238.6L213.54 238.77L213.68 238.93L213.84 239.09L214 239.24L214.16 239.38L214.34 239.52L214.52 239.64L214.7 239.76L214.9 239.87L215.09 239.96L215.3 240.05L215.5 240.13L215.71 240.2L215.93 240.26L216.15 240.31L216.37 240.35L216.59 240.38L216.82 240.4L217.05 240.4L217.12 240.4L217.2 240.4L217.27 240.4L217.34 240.4L217.41 240.4L217.48 240.4L217.54 240.4L217.61 240.4L217.67 240.4L217.74 240.39L217.8 240.39L217.86 240.39L217.92 240.38L217.98 240.38L218.04 240.37L218.1 240.37L218.16 240.36L218.21 240.36L218.27 240.35L218.33 240.34L218.39 240.33L218.44 240.32L218.5 240.3L218.56 240.29L218.62 240.28L218.68 240.26L218.74 240.24L218.8 240.23L218.86 240.21L218.92 240.19L218.98 240.16L219.05 240.14L219.11 240.11L219.18 240.09L219.25 240.06L219.32 240.03L219.39 240L219.46 239.96L219.53 239.93L219.61 239.89L316.89 180.5L316.96 180.46L317.04 180.42L317.11 180.39L317.18 180.36L317.25 180.33L317.32 180.3L317.38 180.27L317.45 180.25L317.51 180.22L317.58 180.2L317.64 180.18L317.7 180.16L317.76 180.14L317.82 180.13L317.88 180.11L317.94 180.1L318 180.08L318.05 180.07L318.11 180.06L318.17 180.05L318.23 180.04L318.28 180.03L318.34 180.03L318.4 180.02L318.46 180.01L318.52 180.01L318.58 180L318.64 180L318.7 180L318.76 179.99L318.82 179.99L318.89 179.99L318.95 179.99L319.02 179.99L319.09 179.99L319.16 179.99L319.23 179.99L319.3 179.99L319.37 179.99L319.53 179.99L319.6 179.99L319.68 179.99L319.75 179.99L319.83 179.99L319.91 179.99L319.98 179.99L320.06 179.99L320.13 179.99L320.21 179.99L320.28 180L320.36 180L320.43 180L320.5 180.01L320.57 180.01L320.64 180.02L320.71 180.03L320.78 180.03L320.85 180.04L320.92 180.05L320.99 180.06L321.05 180.07L321.12 180.08L321.18 180.1L321.24 180.11L321.3 180.13L321.36 180.14L321.42 180.16L321.48 180.18L321.54 180.2L321.59 180.22L321.64 180.25L321.7 180.27L321.75 180.3L321.79 180.33L321.84 180.36L321.88 180.39L321.93 180.42L321.97 180.46L322.01 180.5L422.36 239.38L422.44 239.42L422.51 239.45L422.58 239.48L422.65 239.52L422.72 239.55L422.79 239.58L422.86 239.6L422.92 239.63L422.99 239.65L423.05 239.67L423.11 239.69L423.17 239.71L423.23 239.73L423.29 239.75L423.35 239.76L423.41 239.78L423.47 239.79L423.52 239.8L423.58 239.82L423.64 239.83L423.7 239.83L423.76 239.84L423.81 239.85L423.87 239.86L423.93 239.86L423.99 239.87L424.05 239.87L424.11 239.88L424.17 239.88L424.23 239.88L424.3 239.88L424.36 239.89L424.42 239.89L424.49 239.89L424.56 239.89L424.63 239.89L424.7 239.89L424.77 239.89L424.84 239.89L424.92 239.89L425.15 239.88L425.38 239.86L425.6 239.83L425.82 239.79L426.04 239.73L426.26 239.66L426.47 239.58L426.67 239.49L426.88 239.39L427.07 239.28L427.26 239.16L427.45 239.03L427.63 238.89L427.8 238.75L427.97 238.59L428.13 238.43L428.28 238.26L428.43 238.09L428.57 237.9L428.7 237.71L428.82 237.52L428.93 237.32L429.03 237.11L429.12 236.9L429.21 236.69L429.28 236.47L429.34 236.25L429.39 236.03L429.43 235.8L429.46 235.57L429.47 235.34L429.48 235.11L429.47 234.87L429.44 234.64L429.41 234.4L429.36 234.17L429.29 233.93L429.22 233.7L429.12 233.47L429.02 233.23L380.89 143.63L380.78 143.44L380.68 143.24L380.59 143.04L380.52 142.84L380.45 142.63L380.4 142.43L380.36 142.22L380.32 142.01L380.3 141.8L380.29 141.59L380.29 141.37L380.29 141.16L380.31 140.95L380.34 140.75L380.38 140.54L380.42 140.33L380.48 140.13L380.54 139.93L380.61 139.73L380.7 139.54L380.79 139.35L380.89 139.16L380.99 138.98L381.11 138.8L381.23 138.63L381.37 138.47L381.5 138.31L381.65 138.16L381.81 138.01L381.97 137.87L382.14 137.74L382.31 137.62L382.5 137.51L382.69 137.4L382.88 137.31L383.09 137.22L383.3 137.14L383.51 137.08L383.73 137.02L383.96 136.98L429.02 128.79L429.35 128.7L429.68 128.59L429.98 128.46L430.27 128.32L430.55 128.16L430.81 127.98L431.05 127.79L431.28 127.58L431.49 127.36L431.69 127.13L431.87 126.89L432.03 126.63L432.18 126.37L432.31 126.1L432.42 125.82L432.51 125.54L432.59 125.25L432.66 124.96L432.7 124.67L432.73 124.37L432.74 124.07L432.73 123.77L432.71 123.48L432.67 123.18L432.61 122.89L432.53 122.6L432.43 122.32L432.32 122.04L432.19 121.77L432.04 121.51L431.87 121.26L431.69 121.02L431.48 120.79L431.26 120.57L431.02 120.36L430.76 120.17L430.48 120L430.18 119.84L429.86 119.69L429.53 119.57L427.81 119.1L426.03 118.62L424.2 118.12L422.32 117.61L420.38 117.09L418.4 116.56L416.37 116.02L414.3 115.47L412.19 114.92L410.03 114.35L407.84 113.78L405.62 113.21L403.36 112.63L401.07 112.05L398.76 111.47L396.42 110.89L394.05 110.3L391.67 109.72L389.26 109.14L386.84 108.56L384.4 107.99L381.96 107.42L379.5 106.86L377.03 106.3L374.56 105.75L372.09 105.21L369.61 104.68L367.14 104.16L364.67 103.65L362.21 103.15L359.75 102.67L357.31 102.2L354.88 101.75L352.46 101.31L350.06 100.89L347.68 100.49L345.32 100.11L342.98 99.75L340.67 99.41L338.39 99.09L338.35 99.82L338.32 100.54L338.29 101.27L338.25 101.99L338.23 102.71L338.2 103.42L338.17 104.14L338.15 104.84L338.13 105.55L338.11 106.25L338.1 106.95L338.08 107.64L338.07 108.32L338.06 109.01L338.06 109.68L338.06 110.35L338.06 111.02L338.06 111.68L338.06 112.33L338.07 112.98L338.08 113.62L338.1 114.25L338.11 114.88L338.13 115.49L338.16 116.1L338.18 116.71L338.21 117.3L338.25 117.89L338.28 118.47L338.32 119.03L338.36 119.59L338.41 120.14L338.46 120.68L338.51 121.21L338.57 121.73L338.63 122.24L338.69 122.74L338.76 123.23L338.83 123.71L338.9 124.18L339.06 125.47L339.06 126.72L338.92 127.93L338.64 129.11L338.24 130.24L337.71 131.33L337.07 132.38L336.33 133.38L335.48 134.34L334.54 135.24L333.52 136.1L332.42 136.9L331.25 137.65L330.02 138.34L328.73 138.98L327.39 139.56L326.01 140.08L324.59 140.54L323.15 140.94L321.69 141.27L320.21 141.53L318.74 141.73L317.26 141.85L315.79 141.91L314.34 141.89L312.91 141.8L311.52 141.64L310.16 141.39L308.84 141.07L307.58 140.67L306.38 140.18L305.25 139.61L304.19 138.96L303.22 138.22L302.33 137.39L301.54 136.47L300.85 135.46L300.27 134.35L299.81 133.15L299.48 131.86L299.37 131.39L299.27 130.89L299.17 130.37L299.08 129.83L299 129.27L298.92 128.69L298.86 128.09L298.8 127.46L298.74 126.82L298.7 126.15L298.66 125.47L298.62 124.77L298.6 124.04L298.58 123.3L298.56 122.54L298.55 121.77L298.55 120.97L298.56 120.16L298.57 119.33L298.58 118.48L298.61 117.62L298.63 116.74L298.67 115.85L298.71 114.94L298.75 114.01L298.8 113.07L298.85 112.12L298.91 111.15L298.98 110.17L299.05 109.18L299.12 108.17L299.2 107.15L299.29 106.12L299.37 105.07L299.47 104.02L299.56 102.95L299.66 101.87L299.77 100.79L299.88 99.69L299.99 98.58L297.63 98.82L295.23 99.09Z" id="aAtGIwFie"></path></defs><g><g><use xlink:href="#aAtGIwFie" opacity="1" fill="#000000" fill-opacity="1"></use><g><use xlink:href="#aAtGIwFie" opacity="1" fill-opacity="0" stroke="#000000" stroke-width="1" stroke-opacity="0"></use></g></g></g></svg>